<svg width="70" height="70" viewBox="0 0 70 70" fill="none" xmlns="http://www.w3.org/2000/svg">
<rect width="70" height="70" rx="35" fill="#00FFBD" fill-opacity="0.3"/>
<path d="M50.5733 30.887H38.6781V19.4363C38.6743 19.3218 38.6282 19.2131 38.549 19.1321C38.4698 19.0511 38.3635 19.0039 38.2516 19H19.4417C19.3272 18.9999 19.2171 19.0454 19.1347 19.1268C19.0523 19.2081 19.004 19.3192 19 19.4363V38.6767C19 38.7965 19.0466 38.9115 19.1294 38.9962C19.2122 39.0809 19.3246 39.1286 19.4417 39.1286H31.3369V50.5637C31.3369 50.6794 31.3819 50.7904 31.4619 50.8722C31.5418 50.954 31.6502 51 31.7633 51H50.5733C50.6864 51 50.7949 50.954 50.8749 50.8722C50.9548 50.7904 50.9997 50.6794 50.9997 50.5637V31.3233C51.0018 31.2654 50.9923 31.2077 50.9716 31.1538C50.951 31.0998 50.9196 31.0509 50.8796 31.01C50.8396 30.969 50.7917 30.937 50.739 30.9158C50.6862 30.8947 50.6299 30.8848 50.5733 30.887ZM19.8682 38.3028V19.888H37.81V30.887H31.7177C31.6611 30.8848 31.6046 30.8947 31.5519 30.9158C31.4992 30.937 31.4514 30.969 31.4114 31.01C31.3713 31.0509 31.34 31.0998 31.3194 31.1538C31.2987 31.2077 31.289 31.2654 31.2912 31.3233V38.3028H19.8682ZM37.81 31.8219V38.3028H32.1898V31.7595L37.81 31.8219ZM50.1468 50.1742H32.1898V39.1908H38.2821C38.3966 39.1868 38.505 39.1374 38.5846 39.0532C38.6642 38.9689 38.7086 38.8563 38.7085 38.7391V31.7595H50.1773L50.1468 50.1742Z" fill="url(#paint0_linear_472_2273)" stroke="url(#paint1_linear_472_2273)"/>
<defs>
<linearGradient id="paint0_linear_472_2273" x1="35" y1="19" x2="35" y2="51" gradientUnits="userSpaceOnUse">
<stop stop-color="#5A33E3" stop-opacity="0.32"/>
<stop offset="0.484375" stop-color="#5A33E3"/>
<stop offset="1" stop-color="#5A33E3" stop-opacity="0.34"/>
</linearGradient>
<linearGradient id="paint1_linear_472_2273" x1="35" y1="19" x2="35" y2="51" gradientUnits="userSpaceOnUse">
<stop stop-color="#5A33E3" stop-opacity="0.32"/>
<stop offset="0.484375" stop-color="#5A33E3"/>
<stop offset="1" stop-color="#5A33E3" stop-opacity="0.34"/>
</linearGradient>
</defs>
</svg>
