<svg width="70" height="70" viewBox="0 0 70 70" fill="none" xmlns="http://www.w3.org/2000/svg">
<rect width="70" height="70" rx="35" fill="#00FFBD" fill-opacity="0.3"/>
<path d="M47.1706 31.6409V41.9639C47.1806 41.9841 47.1858 42.0063 47.1858 42.0288C47.1858 42.0513 47.1806 42.0734 47.1706 42.0936L35.1136 50.0992C35.0896 50.1152 35.0614 50.1238 35.0326 50.1238C35.0037 50.1238 34.9755 50.1152 34.9515 50.0992L22.8945 42.0936C22.8845 42.0734 22.8793 42.0513 22.8793 42.0288C22.8793 42.0063 22.8845 41.9841 22.8945 41.9639V22.5171C22.8927 22.4855 22.9012 22.4542 22.9187 22.4279C22.9363 22.4016 22.9619 22.3817 22.9917 22.3713L23.5589 22.1444C30.9723 19.2443 39.2062 19.2443 46.6196 22.1444C46.7747 22.2243 47.8678 22.8966 47.8027 22.4199C47.8063 22.1943 47.7395 21.9733 47.6118 21.7874C47.484 21.6016 47.3015 21.4601 47.0896 21.3827L46.8303 21.2369C39.2031 18.2544 30.7324 18.2544 23.1052 21.2369L22.6352 21.4151C22.4017 21.5132 22.2022 21.6775 22.0611 21.8878C21.92 22.098 21.8435 22.3449 21.8411 22.5981V41.6398C21.836 41.9165 21.9019 42.1898 22.0324 42.4337C22.1629 42.6777 22.3537 42.8842 22.5866 43.0335L34.1898 50.7474C34.428 50.9119 34.7106 51 35.0001 51C35.2896 51 35.5722 50.9119 35.8104 50.7474L47.511 42.9687C47.7098 42.8342 47.8727 42.6531 47.9856 42.4413C48.0986 42.2295 48.1582 41.9933 48.1591 41.7533V31.6409C48.1551 31.5219 48.106 31.4088 48.0217 31.3245C47.9375 31.2403 47.8245 31.1912 47.7054 31.1872C47.6398 31.178 47.5731 31.1828 47.5095 31.2013C47.4459 31.2197 47.3869 31.2514 47.3364 31.2943C47.2859 31.3371 47.245 31.3901 47.2164 31.4499C47.1878 31.5096 47.1723 31.5747 47.1706 31.6409Z" fill="url(#paint0_linear_472_2279)" stroke="url(#paint1_linear_472_2279)"/>
<path d="M31.8394 40.3802C31.7873 40.3818 31.7353 40.3723 31.6869 40.3524C31.6384 40.3325 31.5945 40.3026 31.5578 40.2644L28.2924 37.1245C28.214 37.0516 28.1669 36.9496 28.1616 36.8411C28.1564 36.7325 28.1933 36.6263 28.2642 36.5457C28.3351 36.4651 28.4344 36.4168 28.54 36.4113C28.6456 36.4059 28.7489 36.4438 28.8273 36.5167L31.8253 39.4107L43.4799 27.502C43.5166 27.4635 43.5602 27.4329 43.6086 27.412C43.6569 27.3911 43.7089 27.3804 43.7613 27.3804C43.8137 27.3804 43.8657 27.3911 43.9141 27.412C43.9624 27.4329 44.0061 27.4635 44.0427 27.502C44.0802 27.5397 44.1101 27.5847 44.1304 27.6344C44.1507 27.6841 44.1611 27.7375 44.1611 27.7914C44.1611 27.8453 44.1507 27.8986 44.1304 27.9483C44.1101 27.998 44.0802 28.0431 44.0427 28.0808L32.1209 40.2644C32.0429 40.3353 31.9435 40.3762 31.8394 40.3802Z" fill="url(#paint2_linear_472_2279)" stroke="url(#paint3_linear_472_2279)"/>
<defs>
<linearGradient id="paint0_linear_472_2279" x1="35" y1="19" x2="35" y2="51" gradientUnits="userSpaceOnUse">
<stop stop-color="#5A33E3" stop-opacity="0.4"/>
<stop offset="0.484375" stop-color="#5A33E3"/>
<stop offset="1" stop-color="#5A33E3" stop-opacity="0.36"/>
</linearGradient>
<linearGradient id="paint1_linear_472_2279" x1="35" y1="19" x2="35" y2="51" gradientUnits="userSpaceOnUse">
<stop stop-color="#5A33E3" stop-opacity="0.33"/>
<stop offset="0.484375" stop-color="#5A33E3"/>
<stop offset="1" stop-color="#5A33E3" stop-opacity="0.37"/>
</linearGradient>
<linearGradient id="paint2_linear_472_2279" x1="36.1611" y1="27.3804" x2="36.1611" y2="40.3804" gradientUnits="userSpaceOnUse">
<stop stop-color="#5A33E3" stop-opacity="0.33"/>
<stop offset="0.484375" stop-color="#5A33E3"/>
<stop offset="1" stop-color="#5A33E3" stop-opacity="0.37"/>
</linearGradient>
<linearGradient id="paint3_linear_472_2279" x1="36.1611" y1="27.3804" x2="36.1611" y2="40.3804" gradientUnits="userSpaceOnUse">
<stop stop-color="#5A33E3" stop-opacity="0.33"/>
<stop offset="0.484375" stop-color="#5A33E3"/>
<stop offset="1" stop-color="#5A33E3" stop-opacity="0.37"/>
</linearGradient>
</defs>
</svg>
