<svg width="70" height="70" viewBox="0 0 70 70" fill="none" xmlns="http://www.w3.org/2000/svg">
<rect width="70" height="70" rx="35" fill="#00FFBD" fill-opacity="0.3"/>
<path d="M45.173 51H24.8259C24.1728 50.9881 23.5504 50.7201 23.0928 50.254C22.6351 49.7879 22.3788 49.1607 22.3789 48.5075V32.6467C22.3788 31.9934 22.6351 31.3663 23.0928 30.9001C23.5504 30.434 24.1728 30.1662 24.8259 30.1543H45.173C45.8261 30.1662 46.4487 30.434 46.9064 30.9001C47.3641 31.3663 47.6204 31.9934 47.6203 32.6467V48.5075C47.6204 49.1607 47.3641 49.7879 46.9064 50.254C46.4487 50.7201 45.8261 50.9881 45.173 51ZM24.9166 48.4169H45.0372V32.7372H24.9166V48.4169Z" fill="url(#paint0_linear_472_2301)"/>
<path d="M27.3199 31.4678C26.9714 31.4678 26.6373 31.3294 26.3909 31.083C26.1444 30.8365 26.0059 30.5023 26.0059 30.1537V27.6613C26.0172 26.4932 26.2623 25.3393 26.7269 24.2675C27.1916 23.1957 27.8664 22.2279 28.7112 21.4211C29.556 20.6143 30.5538 19.985 31.6458 19.5701C32.7378 19.1553 33.9018 18.9633 35.0692 19.0058C37.1366 19.0239 39.1358 19.7484 40.7349 21.059C42.3339 22.3696 43.4368 24.1876 43.8606 26.2112C43.8868 26.3924 43.8736 26.577 43.8216 26.7525C43.7697 26.928 43.6802 27.0904 43.5597 27.2281C43.4391 27.3659 43.2903 27.4758 43.1232 27.5506C42.9561 27.6254 42.7749 27.6631 42.5919 27.6613C42.299 27.6555 42.017 27.5485 41.7939 27.3585C41.5709 27.1685 41.4205 26.9073 41.3682 26.6191C41.0826 25.1759 40.3008 23.8782 39.1586 22.9512C38.0163 22.0241 36.5856 21.5262 35.1145 21.5436C34.2992 21.5316 33.4895 21.6804 32.7317 21.9813C31.9739 22.2823 31.2829 22.7295 30.6979 23.2976C30.113 23.8657 29.6457 24.5435 29.3227 25.2923C28.9998 26.041 28.8273 26.8459 28.8155 27.6613V30.1537C28.8173 30.3427 28.7783 30.5298 28.7012 30.7024C28.6242 30.8749 28.5107 31.0287 28.3688 31.1535C28.2268 31.2782 28.0599 31.3708 27.8789 31.4251C27.6979 31.4794 27.5071 31.4939 27.3199 31.4678Z" fill="url(#paint1_linear_472_2301)"/>
<path d="M34.9767 43.34C34.6402 43.34 34.3177 43.2062 34.0797 42.9682C33.8418 42.7303 33.708 42.4077 33.708 42.0711V39.0802C33.708 38.7437 33.8418 38.4209 34.0797 38.183C34.3177 37.945 34.6402 37.8114 34.9767 37.8114C35.1471 37.8053 35.317 37.8336 35.4763 37.8946C35.6355 37.9556 35.7809 38.0481 35.9036 38.1665C36.0263 38.2849 36.1238 38.4269 36.1904 38.5839C36.257 38.7408 36.2912 38.9097 36.2911 39.0802V42.0711C36.2912 42.2416 36.257 42.4104 36.1904 42.5673C36.1238 42.7243 36.0263 42.8663 35.9036 42.9847C35.7809 43.1031 35.6355 43.1957 35.4763 43.2567C35.317 43.3178 35.1471 43.3461 34.9767 43.34Z" fill="url(#paint2_linear_472_2301)"/>
<defs>
<linearGradient id="paint0_linear_472_2301" x1="34.9996" y1="30.1543" x2="34.9996" y2="51" gradientUnits="userSpaceOnUse">
<stop stop-color="#5A33E3" stop-opacity="0.31"/>
<stop offset="0.484375" stop-color="#5A33E3"/>
<stop offset="1" stop-color="#5A33E3" stop-opacity="0.33"/>
</linearGradient>
<linearGradient id="paint1_linear_472_2301" x1="34.9398" y1="19" x2="34.9398" y2="31.4804" gradientUnits="userSpaceOnUse">
<stop stop-color="#5A33E3" stop-opacity="0.31"/>
<stop offset="0.484375" stop-color="#5A33E3"/>
<stop offset="1" stop-color="#5A33E3" stop-opacity="0.33"/>
</linearGradient>
<linearGradient id="paint2_linear_472_2301" x1="34.9995" y1="37.8105" x2="34.9995" y2="43.3408" gradientUnits="userSpaceOnUse">
<stop stop-color="#5A33E3" stop-opacity="0.31"/>
<stop offset="0.484375" stop-color="#5A33E3"/>
<stop offset="1" stop-color="#5A33E3" stop-opacity="0.33"/>
</linearGradient>
</defs>
</svg>
