<svg width="48" height="48" viewBox="0 0 48 48" fill="none" xmlns="http://www.w3.org/2000/svg">
<path d="M32.8566 15.7807C31.1358 15.0257 29.2904 14.4694 27.3609 14.1508C27.3257 14.1446 27.2906 14.16 27.2725 14.1907C27.0352 14.5943 26.7723 15.1209 26.5882 15.5348C24.513 15.2377 22.4483 15.2377 20.4156 15.5348C20.2315 15.1117 19.959 14.5943 19.7206 14.1907C19.7025 14.161 19.6674 14.1456 19.6323 14.1508C17.7039 14.4683 15.8585 15.0246 14.1366 15.7807C14.1216 15.7869 14.1089 15.7971 14.1004 15.8104C10.6001 20.8109 9.64118 25.6885 10.1116 30.5057C10.1137 30.5292 10.1275 30.5518 10.1467 30.5661C12.4561 32.1878 14.6932 33.1724 16.8887 33.825C16.9238 33.8352 16.9611 33.8229 16.9834 33.7953C17.5028 33.1171 17.9657 32.402 18.3627 31.65C18.3861 31.6059 18.3637 31.5537 18.3158 31.5363C17.5815 31.2699 16.8823 30.9451 16.2097 30.5763C16.1565 30.5466 16.1522 30.4739 16.2012 30.439C16.3427 30.3376 16.4843 30.2321 16.6194 30.1255C16.6439 30.1061 16.678 30.102 16.7067 30.1143C21.1254 32.0434 25.9092 32.0434 30.2758 30.1143C30.3046 30.101 30.3386 30.1051 30.3642 30.1245C30.4994 30.2311 30.6409 30.3376 30.7835 30.439C30.8324 30.4739 30.8292 30.5466 30.776 30.5763C30.1034 30.9523 29.4042 31.2699 28.6688 31.5353C28.6209 31.5527 28.5997 31.6059 28.6231 31.65C29.0285 32.4009 29.4915 33.116 30.0013 33.7942C30.0226 33.8229 30.0608 33.8352 30.096 33.825C32.3022 33.1724 34.5392 32.1878 36.8486 30.5661C36.8688 30.5518 36.8816 30.5302 36.8837 30.5067C37.4467 24.9375 35.9408 20.0999 32.8917 15.8114C32.8843 15.7971 32.8715 15.7869 32.8566 15.7807ZM19.0225 27.5725C17.6922 27.5725 16.596 26.4046 16.596 24.9703C16.596 23.5361 17.6709 22.3682 19.0225 22.3682C20.3847 22.3682 21.4703 23.5463 21.449 24.9703C21.449 26.4046 20.3741 27.5725 19.0225 27.5725ZM27.9941 27.5725C26.6638 27.5725 25.5676 26.4046 25.5676 24.9703C25.5676 23.5361 26.6425 22.3682 27.9941 22.3682C29.3563 22.3682 30.4419 23.5463 30.4206 24.9703C30.4206 26.4046 29.3563 27.5725 27.9941 27.5725Z" fill="white"/>
</svg>
