<svg width="40" height="40" viewBox="0 0 40 40" fill="none" xmlns="http://www.w3.org/2000/svg">
<path fill-rule="evenodd" clip-rule="evenodd" d="M9.05271 19.7889C14.8831 17.2487 18.771 15.574 20.7163 14.7649C26.2705 12.4547 27.4246 12.0534 28.1768 12.0402C28.3423 12.0373 28.7122 12.0783 28.9518 12.2727C29.1542 12.4369 29.2098 12.6587 29.2365 12.8143C29.2631 12.97 29.2963 13.3246 29.2699 13.6017C28.9689 16.7641 27.6666 24.4386 27.004 27.9806C26.7237 29.4794 26.1716 29.9819 25.6372 30.0311C24.4758 30.138 23.5938 29.2635 22.4689 28.5262C20.7086 27.3723 19.7142 26.654 18.0056 25.528C16.0309 24.2268 17.311 23.5116 18.4363 22.3428C18.7309 22.0369 23.8482 17.3823 23.9472 16.96C23.9596 16.9072 23.9711 16.7104 23.8542 16.6065C23.7372 16.5025 23.5646 16.5381 23.4401 16.5663C23.2635 16.6064 20.4515 18.465 15.004 22.1423C14.2058 22.6904 13.4828 22.9574 12.835 22.9434C12.1209 22.928 10.7473 22.5397 9.72611 22.2077C8.47361 21.8006 7.47815 21.5853 7.56483 20.8939C7.60998 20.5337 8.10594 20.1654 9.05271 19.7889Z" fill="white"/>
</svg>
