<svg width="26" height="13" viewBox="0 0 26 13" fill="none" xmlns="http://www.w3.org/2000/svg">
<path d="M24.9951 6.35225C25.0005 6.31392 25.0005 6.27501 24.9951 6.23668C25.0016 6.20232 25.0016 6.16704 24.9951 6.13268L24.9257 6.04021L17.5644 1.07101C17.4899 1.0253 17.4008 1.00943 17.3151 1.02657C17.2294 1.04371 17.1533 1.09263 17.1021 1.16348C17.0571 1.23621 17.0416 1.32338 17.0588 1.40717C17.076 1.49096 17.1246 1.56502 17.1946 1.61415L23.6661 5.98244H1.39711C1.3487 5.97333 1.29886 5.975 1.25117 5.98734C1.20348 5.99968 1.15909 6.02241 1.12118 6.05385C1.08326 6.0853 1.05276 6.1247 1.03181 6.16928C1.01087 6.21387 1 6.26254 1 6.3118C1 6.36106 1.01087 6.40973 1.03181 6.45431C1.05276 6.4989 1.08326 6.53829 1.12118 6.56974C1.15909 6.60119 1.20348 6.62391 1.25117 6.63625C1.29886 6.6486 1.3487 6.65026 1.39711 6.64116H23.7123L17.4026 11.3908C17.3339 11.4415 17.288 11.5174 17.275 11.6019C17.2621 11.6863 17.283 11.7724 17.3332 11.8415C17.3631 11.8843 17.4028 11.9193 17.4491 11.9435C17.4954 11.9676 17.5468 11.9802 17.599 11.9802C17.6705 11.9802 17.7399 11.9558 17.7955 11.9108L24.891 6.57182L24.9951 6.35225Z" fill="#5A33E3" stroke="#5A33E3" stroke-width="0.5"/>
</svg>
