<svg width="267" height="187" viewBox="0 0 267 187" fill="none" xmlns="http://www.w3.org/2000/svg">
<path d="M0.00439453 6.44694L3.06804 0L6.13168 6.44694H0.00439453Z" fill="#00FFBD"/>
<path d="M23.6039 6.44694L26.6675 0L29.7312 6.44694H23.6039Z" fill="#00FFBD"/>
<path d="M47.2033 6.44694L50.267 0L53.3306 6.44694H47.2033Z" fill="#00FFBD"/>
<path d="M70.8028 6.44694L73.8665 0L76.9301 6.44694H70.8028Z" fill="#00FFBD"/>
<path d="M0.00439453 39.8097L3.06804 33.3628L6.13168 39.8097H0.00439453Z" fill="#00FFBD"/>
<path d="M23.6039 39.8097L26.6675 33.3628L29.7312 39.8097H23.6039Z" fill="#00FFBD"/>
<path d="M47.2033 39.8097L50.267 33.3628L53.3306 39.8097H47.2033Z" fill="#00FFBD"/>
<path d="M70.8028 39.8097L73.8665 33.3628L76.9301 39.8097H70.8028Z" fill="#00FFBD"/>
<path d="M0.00439453 73.173L3.06804 66.7261L6.13168 73.173H0.00439453Z" fill="#00FFBD"/>
<path d="M23.6039 73.173L26.6675 66.7261L29.7312 73.173H23.6039Z" fill="#00FFBD"/>
<path d="M47.2033 73.173L50.267 66.7261L53.3306 73.173H47.2033Z" fill="#00FFBD"/>
<path d="M70.8028 73.173L73.8665 66.7261L76.9301 73.173H70.8028Z" fill="#00FFBD"/>
<path d="M0.00439453 106.536L3.06804 100.089L6.13168 106.536H0.00439453Z" fill="#00FFBD"/>
<path d="M23.6039 106.536L26.6675 100.089L29.7312 106.536H23.6039Z" fill="#00FFBD"/>
<path d="M47.2033 106.536L50.267 100.089L53.3306 106.536H47.2033Z" fill="#00FFBD"/>
<path d="M70.8028 106.536L73.8665 100.089L76.9301 106.536H70.8028Z" fill="#00FFBD"/>
<path d="M0.00439453 139.899L3.06804 133.452L6.13168 139.899H0.00439453Z" fill="#00FFBD"/>
<path d="M23.6039 139.899L26.6675 133.452L29.7312 139.899H23.6039Z" fill="#00FFBD"/>
<path d="M47.2033 139.899L50.267 133.452L53.3306 139.899H47.2033Z" fill="#00FFBD"/>
<path d="M70.8028 139.899L73.8665 133.452L76.9301 139.899H70.8028Z" fill="#00FFBD"/>
<path d="M0.00439453 173.262L3.06804 166.815L6.13168 173.262H0.00439453Z" fill="#00FFBD"/>
<path d="M23.6039 173.262L26.6675 166.815L29.7312 173.262H23.6039Z" fill="#00FFBD"/>
<path d="M47.2033 173.262L50.267 166.815L53.3306 173.262H47.2033Z" fill="#00FFBD"/>
<path d="M70.8028 173.262L73.8665 166.815L76.9301 173.262H70.8028Z" fill="#00FFBD"/>
<path d="M94.8745 6.44694L97.9382 0L101.002 6.44694H94.8745Z" fill="#00FFBD"/>
<path d="M118.474 6.44694L121.538 0L124.601 6.44694H118.474Z" fill="#00FFBD"/>
<path d="M142.073 6.44694L145.137 0L148.201 6.44694H142.073Z" fill="#00FFBD"/>
<path d="M165.673 6.44694L168.737 0L171.8 6.44694H165.673Z" fill="#00FFBD"/>
<path d="M94.8745 39.8097L97.9382 33.3628L101.002 39.8097H94.8745Z" fill="#00FFBD"/>
<path d="M118.474 39.8097L121.538 33.3628L124.601 39.8097H118.474Z" fill="#00FFBD"/>
<path d="M142.073 39.8097L145.137 33.3628L148.201 39.8097H142.073Z" fill="#00FFBD"/>
<path d="M165.673 39.8097L168.737 33.3628L171.8 39.8097H165.673Z" fill="#00FFBD"/>
<path d="M94.8745 73.173L97.9382 66.7261L101.002 73.173H94.8745Z" fill="#00FFBD"/>
<path d="M118.474 73.173L121.538 66.7261L124.601 73.173H118.474Z" fill="#00FFBD"/>
<path d="M142.073 73.173L145.137 66.7261L148.201 73.173H142.073Z" fill="#00FFBD"/>
<path d="M165.673 73.173L168.737 66.7261L171.8 73.173H165.673Z" fill="#00FFBD"/>
<path d="M94.8745 106.536L97.9382 100.089L101.002 106.536H94.8745Z" fill="#00FFBD"/>
<path d="M118.474 106.536L121.538 100.089L124.601 106.536H118.474Z" fill="#00FFBD"/>
<path d="M142.073 106.536L145.137 100.089L148.201 106.536H142.073Z" fill="#00FFBD"/>
<path d="M165.673 106.536L168.737 100.089L171.8 106.536H165.673Z" fill="#00FFBD"/>
<path d="M94.8745 139.899L97.9382 133.452L101.002 139.899H94.8745Z" fill="#00FFBD"/>
<path d="M118.474 139.899L121.538 133.452L124.601 139.899H118.474Z" fill="#00FFBD"/>
<path d="M142.073 139.899L145.137 133.452L148.201 139.899H142.073Z" fill="#00FFBD"/>
<path d="M165.673 139.899L168.737 133.452L171.8 139.899H165.673Z" fill="#00FFBD"/>
<path d="M94.8745 173.262L97.9382 166.815L101.002 173.262H94.8745Z" fill="#00FFBD"/>
<path d="M118.474 173.262L121.538 166.815L124.601 173.262H118.474Z" fill="#00FFBD"/>
<path d="M142.073 173.262L145.137 166.815L148.201 173.262H142.073Z" fill="#00FFBD"/>
<path d="M165.673 173.262L168.737 166.815L171.8 173.262H165.673Z" fill="#00FFBD"/>
<path d="M189.744 6.44694L192.808 0L195.871 6.44694H189.744Z" fill="#00FFBD"/>
<path d="M213.344 6.44694L216.407 0L219.471 6.44694H213.344Z" fill="#00FFBD"/>
<path d="M236.943 6.44694L240.007 0L243.07 6.44694H236.943Z" fill="#00FFBD"/>
<path d="M260.543 6.44694L263.606 0L266.67 6.44694H260.543Z" fill="#00FFBD"/>
<path d="M189.744 39.8097L192.808 33.3628L195.871 39.8097H189.744Z" fill="#00FFBD"/>
<path d="M213.344 39.8097L216.407 33.3628L219.471 39.8097H213.344Z" fill="#00FFBD"/>
<path d="M236.943 39.8097L240.007 33.3628L243.07 39.8097H236.943Z" fill="#00FFBD"/>
<path d="M260.543 39.8097L263.606 33.3628L266.67 39.8097H260.543Z" fill="#00FFBD"/>
<path d="M189.744 73.173L192.808 66.7261L195.871 73.173H189.744Z" fill="#00FFBD"/>
<path d="M213.344 73.173L216.407 66.7261L219.471 73.173H213.344Z" fill="#00FFBD"/>
<path d="M236.943 73.173L240.007 66.7261L243.07 73.173H236.943Z" fill="#00FFBD"/>
<path d="M260.543 73.173L263.606 66.7261L266.67 73.173H260.543Z" fill="#00FFBD"/>
<path d="M189.744 106.536L192.808 100.089L195.871 106.536H189.744Z" fill="#00FFBD"/>
<path d="M213.344 106.536L216.407 100.089L219.471 106.536H213.344Z" fill="#00FFBD"/>
<path d="M236.943 106.536L240.007 100.089L243.07 106.536H236.943Z" fill="#00FFBD"/>
<path d="M260.543 106.536L263.606 100.089L266.67 106.536H260.543Z" fill="#00FFBD"/>
<path d="M189.744 139.899L192.808 133.452L195.871 139.899H189.744Z" fill="#00FFBD"/>
<path d="M213.344 139.899L216.407 133.452L219.471 139.899H213.344Z" fill="#00FFBD"/>
<path d="M236.943 139.899L240.007 133.452L243.07 139.899H236.943Z" fill="#00FFBD"/>
<path d="M260.543 139.899L263.606 133.452L266.67 139.899H260.543Z" fill="#00FFBD"/>
<path d="M189.744 173.262L192.808 166.815L195.871 173.262H189.744Z" fill="#00FFBD"/>
<path d="M213.344 173.262L216.407 166.815L219.471 173.262H213.344Z" fill="#00FFBD"/>
<path d="M236.943 173.262L240.007 166.815L243.07 173.262H236.943Z" fill="#00FFBD"/>
<path d="M260.543 173.262L263.606 166.815L266.67 173.262H260.543Z" fill="#00FFBD"/>
<line x1="149" y1="37" x2="263" y2="37" stroke="url(#paint0_linear_520_253)" stroke-width="8" stroke-linecap="round"/>
<line x1="232" y1="137" x2="51" y2="137" stroke="url(#paint1_linear_520_253)" stroke-width="8" stroke-linecap="round"/>
<defs>
<linearGradient id="paint0_linear_520_253" x1="145" y1="41" x2="259.434" y2="41" gradientUnits="userSpaceOnUse">
<stop stop-color="#00FFBD" stop-opacity="0"/>
<stop offset="1" stop-color="#00FFBD"/>
</linearGradient>
<linearGradient id="paint1_linear_520_253" x1="236" y1="133" x2="58.7209" y2="133" gradientUnits="userSpaceOnUse">
<stop stop-color="#00FFBD" stop-opacity="0"/>
<stop offset="1" stop-color="#00FFBD"/>
</linearGradient>
</defs>
</svg>
