<svg width="32" height="32" viewBox="0 0 32 32" fill="none" xmlns="http://www.w3.org/2000/svg">
<rect width="32" height="32" rx="16" fill="#E5705A"/>
<path d="M17.5209 16.4643L22.041 11.986C22.2921 11.7349 22.2921 11.2746 22.041 11.0234L20.9947 9.97712C20.7436 9.726 20.2832 9.726 20.0321 9.97712L15.5539 14.4972L11.0338 9.97712C10.7826 9.726 10.3223 9.726 10.0711 9.97712L9.02483 11.0234C8.77372 11.2746 8.77372 11.7349 9.02483 11.986L13.5449 16.4643L9.02483 20.9844C8.77372 21.2355 8.77372 21.6959 9.02483 21.947L10.0711 22.9933C10.3223 23.2444 10.7826 23.2444 11.0338 22.9933L15.5539 18.4732L20.0321 22.9933C20.2832 23.2444 20.7436 23.2444 20.9947 22.9933L22.041 21.947C22.2921 21.6959 22.2921 21.2355 22.041 20.9844L17.5209 16.4643Z" fill="#04053E"/>
</svg>
