<svg width="26" height="13" viewBox="0 0 26 13" fill="none" xmlns="http://www.w3.org/2000/svg">
<path d="M24.9951 6.35219C25.0005 6.31385 25.0005 6.27495 24.9951 6.23662C25.0016 6.20226 25.0016 6.16697 24.9951 6.13262L24.9257 6.04014L17.5644 1.07094C17.4899 1.02524 17.4008 1.00936 17.3151 1.02651C17.2294 1.04365 17.1533 1.09257 17.1021 1.16341C17.0571 1.23615 17.0416 1.32332 17.0588 1.40711C17.076 1.4909 17.1246 1.56496 17.1946 1.61409L23.6661 5.98238H1.39711C1.3487 5.97327 1.29886 5.97494 1.25117 5.98728C1.20348 5.99962 1.15909 6.02235 1.12118 6.05379C1.08326 6.08524 1.05276 6.12464 1.03181 6.16922C1.01087 6.21381 1 6.26248 1 6.31174C1 6.361 1.01087 6.40967 1.03181 6.45425C1.05276 6.49884 1.08326 6.53823 1.12118 6.56968C1.15909 6.60113 1.20348 6.62385 1.25117 6.63619C1.29886 6.64853 1.3487 6.6502 1.39711 6.6411H23.7123L17.4026 11.3907C17.3339 11.4415 17.288 11.5174 17.275 11.6018C17.2621 11.6862 17.283 11.7724 17.3332 11.8414C17.3631 11.8843 17.4028 11.9192 17.4491 11.9434C17.4954 11.9675 17.5468 11.9801 17.599 11.9801C17.6705 11.9802 17.7399 11.9557 17.7955 11.9108L24.891 6.57176L24.9951 6.35219Z" fill="#00FFBD" stroke="#00FFBD" stroke-width="0.5"/>
</svg>
