<svg width="453" height="453" viewBox="0 0 453 453" fill="none" xmlns="http://www.w3.org/2000/svg">
<path d="M61.1064 253.599V210.668L177.31 268.905V311.841L61.1064 253.599Z" fill="#7BEAD7"/>
<path d="M62.3477 212.684L111.095 237.118L176.064 269.675V309.829L62.3477 252.828V212.684ZM59.8652 208.656V254.364L178.556 313.857V268.14L112.209 234.894L59.8652 208.656Z" fill="#1D1D1B"/>
<path d="M60.6109 244.363L59.125 247.328L177.817 306.82L179.303 303.856L60.6109 244.363Z" fill="#1D1D1B"/>
<path d="M60.6109 232.34L59.125 235.305L177.817 294.797L179.303 291.832L60.6109 232.34Z" fill="#1D1D1B"/>
<path d="M60.608 220.315L59.1221 223.279L177.814 282.771L179.3 279.807L60.608 220.315Z" fill="#1D1D1B"/>
<path d="M178.551 310.35V313.857L59.8652 254.36V208.652C59.8652 208.652 76.7531 225.49 86.2706 235.026C94.0441 242.822 103.448 251.623 114.801 261.349C126.316 271.243 139.833 282.088 155.661 293.857C162.809 299.17 170.424 304.674 178.551 310.35Z" fill="#1D1D1B"/>
<path d="M179.797 269.005L391.371 190.301V233.358L179.797 312.067V269.005Z" fill="#7BEAD7"/>
<path d="M390.129 192.086V232.493L181.038 310.273V269.866L341.128 210.314L390.129 192.086ZM392.611 188.511L340.258 207.986L178.551 268.14V313.852L392.611 234.224V188.511Z" fill="#1D1D1B"/>
<path d="M392.017 224.144L177.967 303.784L179.121 306.888L393.172 227.247L392.017 224.144Z" fill="#1D1D1B"/>
<path d="M392.015 212.117L177.965 291.758L179.121 294.865L393.171 215.225L392.015 212.117Z" fill="#1D1D1B"/>
<path d="M392.017 200.095L177.967 279.735L179.123 282.843L393.174 203.202L392.017 200.095Z" fill="#1D1D1B"/>
<path d="M69.1973 209.164L273.704 133.082L383.28 188.004L178.773 264.081L69.1973 209.164Z" fill="#7BEAD7"/>
<path d="M273.486 137.141L373.948 187.497L337.658 200.996L178.991 260.017L115.548 228.226L78.5243 209.667L273.486 137.141ZM273.926 129.019L59.8652 208.656L112.209 234.894L178.551 268.14L340.259 207.986L392.612 188.511L273.926 129.019Z" fill="#1D1D1B"/>
<path d="M370.183 76.1539L371.012 58.7769L311.017 89.7032L367.796 126.201L368.643 108.466C396.117 110.817 417.762 133.916 417.762 161.988H450.106C450.106 116.598 414.781 79.3249 370.183 76.1539Z" fill="#5A33E3"/>
<path d="M88.5123 360.479L88.9653 377.87L146.519 342.609L87.2031 310.396L87.6652 328.144C60.0911 327.827 36.8023 306.382 34.7366 278.387L2.47852 280.77C5.83072 326.033 43.8057 360.602 88.5123 360.479Z" fill="#5A33E3"/>
<path d="M324.675 378.808C305.948 353.453 302.514 323.012 314.628 304.344C316.431 301.544 318.6 299.007 321.119 296.797C321.386 296.557 321.663 296.33 321.939 296.099C322.433 295.678 322.954 295.27 323.493 294.871C324.118 294.409 324.761 293.97 325.418 293.549C327.919 291.94 330.578 290.672 333.373 289.734C354.976 282.423 384.113 294.622 403.366 320.692C422.614 346.753 425.712 378.187 412.371 396.688C410.713 398.993 408.802 401.1 406.627 402.966L402.378 406.105C399.42 407.972 396.24 409.372 392.892 410.309C371.484 416.402 343.398 404.162 324.675 378.808Z" fill="#E333B2"/>
<path d="M381.477 413.104C361.522 413.104 339.14 400.488 323.674 379.551C305.079 354.373 300.929 323.17 313.581 303.673C315.457 300.76 317.717 298.133 320.295 295.868C320.562 295.628 320.852 295.388 321.146 295.143C321.618 294.745 322.148 294.323 322.75 293.879C323.407 293.395 324.082 292.933 324.752 292.507C327.307 290.862 330.075 289.535 332.974 288.566C355.679 280.878 385.033 293.793 404.363 319.963C423.688 346.128 427.393 377.983 413.377 397.426C411.642 399.836 409.645 402.024 407.434 403.922L407.361 403.981L403.035 407.17C400 409.082 396.698 410.549 393.223 411.519C389.459 412.583 385.518 413.104 381.477 413.104ZM346.555 288.901C342.057 288.901 337.749 289.571 333.767 290.917C331.058 291.823 328.476 293.064 326.089 294.6C325.459 294.998 324.838 295.424 324.227 295.877C323.67 296.289 323.185 296.67 322.741 297.05C322.46 297.281 322.202 297.494 321.953 297.721C319.534 299.845 317.423 302.301 315.67 305.023C303.566 323.673 307.683 353.712 325.672 378.074C343.665 402.436 371.162 415.202 392.544 409.127C395.778 408.221 398.845 406.862 401.667 405.091L405.844 402.006C407.891 400.244 409.744 398.214 411.352 395.972C417.685 387.188 420.344 375.007 418.845 361.671C417.309 348.045 411.457 333.757 402.356 321.435C393.255 309.114 381.318 299.315 368.743 293.839C361.223 290.563 353.649 288.901 346.555 288.901Z" fill="#1D1D1B"/>
<path d="M330.559 304.452C330.957 304.158 331.374 303.872 331.8 303.601C333.499 302.509 335.284 301.653 337.15 301.028C354.26 295.234 378.065 306.486 393.784 327.768C409.499 349.046 413.254 375.107 402.708 389.73C401.653 391.202 400.461 392.525 399.157 393.684L395.682 396.248C393.816 397.381 391.8 398.255 389.675 398.848C372.701 403.673 349.408 392.266 334.246 371.732C319.084 351.197 315.03 325.58 324.606 310.821C325.848 308.896 327.306 307.193 328.969 305.734L329.123 305.594C329.232 305.499 329.349 305.404 329.472 305.308L329.666 305.145C329.916 304.942 330.205 304.711 330.559 304.452Z" fill="#E333B2"/>
<path d="M381.503 401.186C365.386 401.186 346.314 390.165 333.25 372.475C317.789 351.542 313.716 325.331 323.569 310.151C324.865 308.144 326.405 306.341 328.154 304.806L328.299 304.674C328.394 304.588 328.489 304.511 328.584 304.434L328.874 304.194C329.128 303.977 329.44 303.732 329.821 303.451C330.242 303.139 330.686 302.835 331.134 302.55C332.901 301.417 334.795 300.507 336.756 299.85C354.351 293.893 378.754 305.327 394.781 327.034C410.808 348.738 414.563 375.41 403.714 390.464C402.609 392.004 401.349 393.399 399.981 394.618L399.895 394.69L396.33 397.317C394.369 398.509 392.244 399.433 390.011 400.054C387.315 400.819 384.457 401.186 381.503 401.186ZM346.781 300.751C343.551 300.751 340.453 301.222 337.549 302.205C335.778 302.799 334.07 303.619 332.471 304.647C332.063 304.905 331.673 305.173 331.297 305.453C330.971 305.694 330.704 305.902 330.478 306.097L330.147 306.369C330.079 306.423 330.011 306.477 329.947 306.532L329.803 306.663C328.217 308.058 326.826 309.68 325.653 311.497C316.344 325.843 320.38 350.867 335.248 370.998C350.115 391.129 372.86 402.337 389.34 397.657C391.338 397.1 393.241 396.28 394.994 395.215L398.378 392.715C399.596 391.628 400.715 390.377 401.703 389.005C411.941 374.803 408.19 349.363 392.788 328.507C380.072 311.293 362.024 300.751 346.781 300.751Z" fill="#1D1D1B"/>
<path d="M308.852 390.495C286.465 360.185 285.935 322.609 307.665 306.559L308.34 306.07L321.934 296.099C321.658 296.325 321.382 296.552 321.115 296.797C318.596 299.012 316.426 301.544 314.623 304.344C302.51 323.012 305.948 353.453 324.671 378.808C343.398 404.162 371.479 416.402 392.883 410.314C396.231 409.376 399.411 407.976 402.369 406.11L390.781 414.667C390.12 415.233 389.427 415.791 388.72 416.316C366.99 432.366 331.235 420.805 308.852 390.495Z" fill="#7BEAD7"/>
<path d="M365.681 424.81C360.24 424.81 354.514 423.868 348.648 421.974C333.318 417.018 318.827 406.101 307.846 391.234C296.865 376.366 290.696 359.306 290.465 343.197C290.234 326.935 296.077 313.567 306.922 305.562L307.606 305.068L321.192 295.102L322.714 297.068C322.455 297.281 322.193 297.494 321.944 297.721C319.525 299.845 317.414 302.301 315.66 305.023C303.556 323.673 307.674 353.712 325.663 378.074C343.656 402.436 371.153 415.202 392.535 409.127C395.783 408.216 398.868 406.853 401.699 405.068L403.099 407.12L391.547 415.65C390.845 416.253 390.138 416.814 389.45 417.326C382.732 422.291 374.591 424.81 365.681 424.81ZM313.459 303.859L308.394 307.569C298.225 315.08 292.739 327.723 292.956 343.161C293.178 358.758 299.176 375.302 309.848 389.757C320.521 404.207 334.573 414.812 349.413 419.609C364.109 424.361 377.803 422.839 387.982 415.32C388.634 414.839 389.305 414.305 389.971 413.729L390.043 413.671L392.806 411.628C370.519 417.707 342.147 404.57 323.67 379.546C305.142 354.45 300.956 323.37 313.459 303.859Z" fill="#1D1D1B"/>
<path d="M386.687 343.034C384.032 341 380.798 339.845 377.518 339.641C378.61 336.516 378.261 332.869 376.218 329.535C372.68 323.75 365.247 320.86 358.905 322.518L355.294 316.615L350.456 318.681L353.989 324.461L346.71 327.564L343.176 321.784L338.338 323.845L341.872 329.626L330.959 334.278L333.781 338.889L339.847 336.303L348.332 350.169L342.266 352.756L345.088 357.367L351.154 354.781L361.043 370.957L354.977 373.544L357.799 378.155L368.712 373.503L372.245 379.283L377.083 377.218L373.55 371.437L380.83 368.334L384.363 374.115L389.201 372.054L385.668 366.273C390.112 364.353 392.938 360.466 393.233 355.868C393.541 351.139 391.154 346.464 386.687 343.034ZM344.685 334.242L359.865 327.768C363.878 326.056 369.043 327.777 371.385 331.601C373.722 335.424 372.363 339.927 368.35 341.639L353.17 348.112L344.685 334.242ZM387.647 355.039C387.457 357.983 385.641 360.47 382.782 361.689L365.881 368.896L355.983 352.719L372.92 345.499C376.3 344.058 380.485 344.556 383.33 346.735C386.27 348.987 387.842 352.013 387.647 355.039Z" fill="black"/>
<path d="M308.702 319.066L292.566 332.303C291.493 338.31 291.434 344.806 292.367 351.505L308.036 338.654C307.194 331.786 307.416 325.159 308.702 319.066Z" fill="#E333B2"/>
<path d="M291.439 353.87L291.131 351.678C290.175 344.815 290.243 338.219 291.339 332.085L291.421 331.632L310.646 315.863L309.917 319.324C308.657 325.295 308.44 331.746 309.264 338.5L309.346 339.179L291.439 353.87ZM293.708 332.969C292.848 338.056 292.716 343.474 293.319 349.109L306.718 338.119C306.093 332.575 306.152 327.225 306.891 322.156L293.708 332.969Z" fill="#1D1D1B"/>
<path d="M308.032 338.654L292.362 351.505C293.087 356.688 294.405 361.992 296.326 367.293L311.796 354.609C309.93 349.24 308.675 343.877 308.032 338.654Z" fill="#E333B2"/>
<path d="M295.755 369.367L295.157 367.714C293.228 362.377 291.873 356.982 291.13 351.673L291.035 350.984L308.992 336.257L309.268 338.5C309.903 343.673 311.148 348.955 312.969 354.196L313.255 355.016L295.755 369.367ZM293.694 352.022C294.347 356.384 295.429 360.81 296.915 365.204L310.342 354.192C308.865 349.802 307.783 345.385 307.108 341.018L293.694 352.022Z" fill="#1D1D1B"/>
<path d="M314.619 304.344C316.422 301.544 318.592 299.007 321.111 296.797C321.378 296.557 321.654 296.33 321.93 296.099L308.336 306.07L307.661 306.559C299.48 312.602 294.456 321.694 292.562 332.303L308.698 319.066C309.84 313.666 311.806 308.683 314.619 304.344Z" fill="#E333B2"/>
<path d="M290.75 335.397L291.343 332.081C293.364 320.765 298.75 311.596 306.927 305.558L307.611 305.064L321.196 295.098L322.718 297.064C322.46 297.277 322.197 297.49 321.948 297.716C319.529 299.841 317.418 302.296 315.665 305.019L315.66 305.023C312.979 309.159 311.044 313.97 309.916 319.324L309.826 319.75L290.75 335.397ZM313.454 303.859L308.39 307.569C301.586 312.593 296.834 319.99 294.528 329.086L307.579 318.382C308.761 312.978 310.741 308.094 313.454 303.859Z" fill="#1D1D1B"/>
<path d="M392.878 410.318C375.51 415.256 353.748 408.13 336.153 391.723L321.082 404.085C342.808 423.89 370.622 429.684 388.715 416.321C389.422 415.8 390.115 415.243 390.776 414.672L402.364 406.115C399.406 407.981 396.23 409.381 392.878 410.318Z" fill="#E333B2"/>
<path d="M365.662 424.742C350.886 424.742 334.423 417.929 320.245 405L319.185 404.031L336.208 390.069L337.006 390.812C354.292 406.93 375.574 413.947 392.543 409.122H392.548C395.791 408.216 398.876 406.848 401.703 405.064L403.103 407.116L391.551 415.646C390.845 416.253 390.138 416.814 389.454 417.322C382.686 422.314 374.473 424.742 365.662 424.742ZM322.994 404.126C344.553 423.147 371.112 427.777 387.982 415.32C388.629 414.839 389.3 414.305 389.97 413.729L390.043 413.675L392.806 411.632C375.338 416.393 353.744 409.426 336.109 393.372L322.994 404.126Z" fill="#1D1D1B"/>
<path d="M326.225 380.851L311.018 393.322C314.166 397.272 317.55 400.855 321.088 404.081L336.159 391.718C332.657 388.457 329.323 384.824 326.225 380.851Z" fill="#E333B2"/>
<path d="M321.042 405.725L320.249 405C316.58 401.657 313.146 397.988 310.048 394.097L309.282 393.141L326.424 379.084L327.207 380.09C330.224 383.958 333.522 387.569 337.01 390.817L338.048 391.786L321.042 405.725ZM312.757 393.499C315.343 396.656 318.157 399.655 321.133 402.436L334.279 391.655C331.375 388.864 328.612 385.829 326.034 382.613L312.757 393.499Z" fill="#1D1D1B"/>
<path d="M324.666 378.808C322.188 375.451 319.987 372.008 318.043 368.516L302.723 381.082C304.544 384.271 306.573 387.424 308.843 390.495C309.554 391.456 310.279 392.398 311.013 393.322L326.22 380.851C325.699 380.176 325.178 379.501 324.666 378.808Z" fill="#E333B2"/>
<path d="M310.827 395.079L310.044 394.092C309.287 393.145 308.549 392.18 307.847 391.229C305.622 388.221 303.539 385.009 301.645 381.693L301.124 380.783L318.411 366.609L319.135 367.909C321.092 371.428 323.289 374.844 325.668 378.065C326.17 378.749 326.687 379.415 327.203 380.076L327.951 381.032L310.827 395.079ZM304.327 381.376C306.03 384.285 307.883 387.102 309.844 389.757C310.284 390.355 310.741 390.957 311.208 391.555L324.499 380.656C324.218 380.289 323.942 379.922 323.665 379.551C321.514 376.638 319.511 373.571 317.69 370.418L304.327 381.376Z" fill="#1D1D1B"/>
<path d="M311.797 354.604L296.327 367.288C298.003 371.918 300.137 376.543 302.724 381.077L318.044 368.511C315.503 363.936 313.419 359.27 311.797 354.604Z" fill="#E333B2"/>
<path d="M302.375 382.98L301.645 381.702C299.054 377.159 296.875 372.452 295.158 367.718L294.859 366.889L312.386 352.516L312.97 354.196C314.588 358.844 316.662 363.46 319.136 367.913L319.638 368.819L302.375 382.98ZM297.799 367.691C299.249 371.573 301.025 375.428 303.086 379.179L316.463 368.208C314.429 364.448 312.671 360.584 311.222 356.683L297.799 367.691Z" fill="#1D1D1B"/>
<path d="M402.373 406.219L390.79 414.78C390.129 415.351 389.431 415.908 388.729 416.429C367.443 432.148 332.725 421.394 310.27 392.466C320.063 397.485 334.455 402.848 352.081 403.569C365.844 411.324 380.484 413.951 392.892 410.432C396.24 409.494 399.415 408.085 402.373 406.219Z" fill="#1D1D1B"/>
<path d="M122.144 121.042C102.085 145.354 73.3826 156.068 52.3362 148.838C49.1834 147.769 46.1981 146.278 43.4393 144.371C43.1403 144.172 42.8549 143.959 42.565 143.746C42.035 143.366 41.5141 142.962 40.9976 142.537C40.3952 142.043 39.8153 141.526 39.2491 140.987C37.0837 138.949 35.2083 136.679 33.6228 134.197C21.2921 115.008 26.0668 83.7825 46.6964 58.7859C67.317 33.7939 97.0609 23.1711 118.243 31.6286C120.88 32.675 123.389 34.025 125.727 35.6784L129.804 39.0397C132.332 41.4587 134.461 44.1993 136.182 47.2254C147.271 66.5141 142.207 96.7292 122.144 121.042Z" fill="#FFFF3F"/>
<path d="M66.1841 152.299C61.2238 152.299 56.4265 151.556 51.9327 150.011C48.653 148.897 45.5545 147.343 42.7323 145.39C42.4379 145.196 42.1389 144.974 41.8354 144.747C41.3235 144.38 40.7889 143.968 40.2091 143.492C39.5885 142.98 38.9815 142.441 38.3926 141.884C36.1774 139.8 34.2204 137.436 32.5761 134.863C19.6157 114.7 25.0291 83.0894 45.7357 57.9932C66.4378 32.9015 96.4445 21.5856 118.705 30.4734C121.464 31.5697 124.073 32.9785 126.447 34.6637L126.519 34.718L130.664 38.1427C133.255 40.6206 135.475 43.47 137.264 46.6093C148.848 66.7542 143.027 97.6896 123.108 121.83C107.258 141.037 85.491 152.299 66.1841 152.299ZM102.623 30.0204C96.2543 30.0204 89.4864 31.2933 82.6914 33.8301C69.8398 38.6229 57.4005 47.7644 47.6519 59.5787C37.9033 71.3929 31.2895 85.3498 29.0245 98.8764C26.8094 112.113 28.8116 124.417 34.6689 133.522C36.2046 135.927 38.0302 138.133 40.1004 140.081C40.6485 140.602 41.2148 141.105 41.7901 141.576C42.3246 142.016 42.8139 142.396 43.285 142.731C43.5794 142.953 43.8467 143.148 44.123 143.334C46.7731 145.168 49.6632 146.618 52.73 147.66C56.9837 149.119 61.5318 149.825 66.234 149.825C84.7843 149.825 105.804 138.885 121.178 120.249C140.453 96.8877 146.175 67.1166 135.094 47.8414C133.432 44.9196 131.371 42.2741 128.965 39.9683L124.961 36.6659C122.764 35.1076 120.349 33.803 117.781 32.7837C113.165 30.9355 108.037 30.0204 102.623 30.0204Z" fill="#1D1D1B"/>
<path d="M48.5767 133.35C48.1962 133.037 47.8156 132.697 47.4487 132.353C45.9765 130.967 44.7171 129.449 43.6571 127.787C33.8904 112.589 39.0365 86.7678 55.8745 66.3601C72.708 45.957 97.0839 36.0001 113.827 42.6818C115.507 43.3523 117.084 44.1858 118.524 45.1688L121.854 47.9185C123.403 49.4542 124.744 51.1982 125.836 53.1144C134.633 68.4122 129.206 93.7757 112.962 113.463C96.717 133.15 72.8439 143.293 56.2007 137.576C54.0308 136.838 52.0285 135.832 50.2075 134.577L50.0353 134.46C49.9176 134.378 49.7952 134.283 49.6729 134.192L49.4691 134.043C49.2063 133.857 48.9164 133.631 48.5767 133.35Z" fill="#FFFF3F"/>
<path d="M66.1664 140.394C62.5153 140.394 59.0272 139.859 55.7973 138.754C53.5368 137.984 51.4168 136.924 49.5006 135.601L49.3375 135.492C49.2288 135.42 49.1246 135.343 49.0204 135.261L48.735 135.049C48.4632 134.858 48.1506 134.614 47.7837 134.31C47.3805 133.979 46.9819 133.622 46.5923 133.255C45.0612 131.814 43.7203 130.201 42.6059 128.453C32.5674 112.829 37.7407 86.3827 54.9139 65.5674C72.0826 44.7566 97.052 34.6456 114.284 41.5267C116.046 42.2288 117.709 43.1076 119.222 44.1405L119.312 44.2084L122.728 47.0306C124.359 48.6433 125.768 50.4825 126.914 52.4938C135.947 68.2038 130.483 94.1789 113.922 114.251C100.486 130.541 81.8583 140.394 66.1664 140.394ZM49.3692 132.394C49.6818 132.652 49.949 132.861 50.1891 133.028L50.5198 133.273C50.5968 133.332 50.6693 133.386 50.7418 133.436L50.9094 133.549C52.6444 134.75 54.556 135.705 56.6036 136.403C72.7802 141.957 96.078 131.977 112.005 112.675C127.933 93.3725 133.296 68.5844 124.757 53.735C123.729 51.9321 122.474 50.2877 121.02 48.8426L117.777 46.1654C116.427 45.2503 114.945 44.4666 113.369 43.8415C97.1109 37.35 73.3374 47.1575 56.8346 67.1574C40.3318 87.1574 35.2265 112.376 44.7033 127.121C45.709 128.697 46.9185 130.156 48.3046 131.456C48.6535 131.778 49.0068 132.095 49.3692 132.394Z" fill="#1D1D1B"/>
<path d="M137.318 133.558C113.332 162.623 77.0106 172.244 56.1726 155.053L55.5338 154.514L42.5645 143.742C42.8498 143.955 43.1398 144.167 43.4387 144.367C46.1975 146.274 49.1828 147.764 52.3357 148.833C73.382 156.059 102.084 145.35 122.143 121.037C142.202 96.7247 147.271 66.5141 136.177 47.2209C134.455 44.1994 132.326 41.4542 129.799 39.0352L140.911 48.2039C141.622 48.7067 142.333 49.2458 143.008 49.803C163.846 67.0034 161.3 104.494 137.318 133.558Z" fill="#FFFF3F"/>
<path d="M81.3184 164.783C71.597 164.783 62.5868 161.957 55.3796 156.009L54.7318 155.461L41.7715 144.697L43.3072 142.745C43.5835 142.953 43.8508 143.148 44.1271 143.334C46.7771 145.169 49.6673 146.618 52.7341 147.66C73.7623 154.881 101.907 143.61 121.182 120.249C140.458 96.8878 146.179 67.1166 135.099 47.8415C133.427 44.9061 131.357 42.2515 128.938 39.9366L130.587 38.0793L141.663 47.2164C142.414 47.7509 143.13 48.299 143.796 48.8472C165.128 66.4462 162.645 104.802 138.27 134.346C122.134 153.911 100.372 164.783 81.3184 164.783ZM52.1452 150.084L56.9742 154.102C77.2369 170.822 112.852 161.255 136.358 132.765L137.318 133.558L136.358 132.765C159.864 104.281 162.491 67.4972 142.22 50.7679C141.59 50.2515 140.911 49.7305 140.195 49.2231L140.122 49.1688L137.472 46.9808C148.775 67.1348 142.904 97.8391 123.103 121.835C107.257 141.042 85.4905 152.299 66.1837 152.303C61.3003 152.299 56.5801 151.579 52.1452 150.084Z" fill="black"/>
<path d="M82.0265 101.277C87.5984 95.7008 87.6755 91.1572 84.808 85.0961C82.8284 80.6974 83.5758 78.6725 85.8046 76.4392C88.0333 74.2105 90.3391 74.0293 92.0831 76.5389C93.6551 78.7948 93.569 81.0055 91.6211 84.0225C91.2315 84.625 91.1726 85.3226 91.4353 85.6986L92.8306 87.7054C93.1794 88.2082 93.9178 88.104 94.5565 87.4698L94.7151 87.3112C97.868 83.3067 99.0005 78.3418 97.3153 75.1391L101.134 71.3158C101.773 70.6771 101.986 69.8254 101.709 69.0372L100.4 67.1573C100.051 66.6544 99.313 66.7586 98.4297 67.4291L94.7694 71.0938C91.5169 67.9681 86.6743 68.7745 82.697 72.7564C77.4467 78.0112 77.1206 82.591 79.988 88.6521C81.637 92.9602 81.4648 95.0439 78.919 97.5898C76.3731 100.136 73.4014 100.136 71.7434 97.7529C69.4739 94.4913 70.4433 91.6102 72.5679 88.8469C73.116 88.0859 73.1749 87.3883 72.9122 87.0123L71.4309 84.8786C71.0821 84.3758 70.3437 84.48 69.7049 85.1142L69.5464 85.2727C65.9179 89.7574 64.4501 94.6272 66.5294 99.5649L62.7106 103.388C62.0764 104.027 61.859 104.879 62.1353 105.667L63.4445 107.547C63.7933 108.05 64.5317 107.945 65.415 107.275L69.2338 103.452C72.6449 106.414 77.7276 105.576 82.0265 101.277Z" fill="#0A2E67"/>
<path d="M55.1086 103.334C52.7621 89.0961 63.1176 70.2196 77.9036 61.5945C85.8945 56.7836 93.8673 55.8278 99.8288 58.5775C100.495 58.7587 101.147 58.5322 101.944 57.7349L104.173 55.5062C104.812 54.8674 105.111 54.1426 104.92 53.4812C104.834 53.3544 104.658 53.1053 104.413 53.137C91.3531 46.0067 70.7416 55.5741 58.2388 74.4642C50.8957 85.6397 47.8062 97.8798 49.8266 107.769C49.8583 108.589 50.5242 108.77 51.249 108.258C51.4937 108.226 51.6567 108.063 51.9738 107.746L54.2026 105.517C54.6782 105.042 55.0542 104.027 55.1086 103.334Z" fill="#0A2E67"/>
<path d="M114.007 66.9263C113.975 66.1064 113.309 65.9252 112.585 66.4371C112.34 66.4688 112.177 66.6319 111.86 66.949L109.631 69.1778C108.992 69.8165 108.621 70.8267 108.562 71.5243C110.908 85.7621 100.553 104.639 85.7669 113.264C77.776 118.075 69.8032 119.03 63.8417 116.281C63.1758 116.099 62.5235 116.326 61.7262 117.123L59.4975 119.352C58.8587 119.991 58.5597 120.716 58.75 121.377C58.8361 121.504 59.0127 121.753 59.2574 121.721C72.3173 128.851 92.9288 119.284 105.432 100.394C112.938 89.0554 115.941 76.6885 114.007 66.9263Z" fill="#0A2E67"/>
<path d="M128.045 113.069L143.252 125.54C146.092 121.255 148.493 116.856 150.464 112.417L135.275 99.9591C133.3 104.394 130.885 108.788 128.045 113.069Z" fill="#FFFF3F"/>
<path d="M143.528 127.375L126.387 113.318L127.007 112.38C129.775 108.208 132.176 103.859 134.138 99.4563L134.799 97.9659L151.981 112.059L151.596 112.924C149.562 117.499 147.098 121.975 144.285 126.229L143.528 127.375ZM129.698 112.815L142.971 123.701C145.227 120.181 147.229 116.516 148.946 112.775L135.741 101.943C134.006 105.64 131.981 109.286 129.698 112.815Z" fill="black"/>
<path d="M108.146 134.804L123.357 147.28C127.131 144.285 130.759 140.897 134.184 137.141L118.977 124.67C115.557 128.426 111.924 131.814 108.146 134.804Z" fill="#FFFF3F"/>
<path d="M123.348 148.879L106.166 134.79L107.376 133.835C111.126 130.863 114.719 127.497 118.062 123.837L118.855 122.967L135.987 137.019L135.104 137.989C131.683 141.739 127.992 145.196 124.132 148.263L123.348 148.879ZM110.116 134.813L123.366 145.68C126.51 143.126 129.536 140.303 132.377 137.268L119.095 126.374C116.254 129.413 113.242 132.244 110.116 134.813Z" fill="black"/>
<path d="M52.3357 148.838C49.1828 147.769 46.1975 146.278 43.4387 144.371C43.1398 144.172 42.8544 143.959 42.5645 143.746L55.5338 154.519L56.1726 155.058C73.2688 169.164 100.784 165.209 123.362 147.284L108.15 134.808C90.0796 149.132 68.852 154.509 52.3357 148.838Z" fill="#FFFF3F"/>
<path d="M81.2821 164.829C71.289 164.829 62.4283 161.834 55.3796 156.013L54.7318 155.465L41.7715 144.697L43.3072 142.745C43.5835 142.953 43.8508 143.148 44.1271 143.334C46.7771 145.169 49.6673 146.618 52.7341 147.66H52.7386C68.7431 153.155 89.6808 147.855 107.375 133.83L108.159 133.209L125.336 147.298L124.131 148.253C112.906 157.164 100.023 162.903 87.8597 164.412C85.6219 164.688 83.4248 164.829 81.2821 164.829ZM52.1452 150.088L56.9742 154.106C72.7884 167.157 99.0986 164.303 121.373 147.261L108.131 136.398C90.0205 150.423 68.6752 155.655 52.1452 150.088Z" fill="black"/>
<path d="M122.142 121.042C121.11 122.292 120.054 123.497 118.98 124.67L134.188 137.141C135.248 135.977 136.299 134.79 137.313 133.558C139.47 130.949 141.445 128.267 143.252 125.54L128.045 113.069C126.247 115.778 124.285 118.446 122.142 121.042Z" fill="#FFFF3F"/>
<path d="M134.31 138.854L117.178 124.802L118.061 123.832C119.23 122.555 120.249 121.381 121.182 120.249C123.221 117.776 125.182 115.13 127.008 112.38L127.769 111.234L144.906 125.291L144.285 126.229C142.419 129.046 140.394 131.782 138.269 134.351C137.345 135.47 136.34 136.625 135.103 137.979L134.31 138.854ZM120.775 124.539L134.061 135.434C134.922 134.473 135.665 133.612 136.358 132.77C138.192 130.55 139.95 128.204 141.59 125.785L128.312 114.894C126.664 117.309 124.91 119.637 123.103 121.83C122.383 122.704 121.617 123.597 120.775 124.539Z" fill="black"/>
<path d="M140.272 85.0192C139.162 89.9705 137.491 94.9852 135.275 99.9591L150.464 112.417C152.68 107.438 154.342 102.419 155.447 97.4676L140.272 85.0192Z" fill="#FFFF3F"/>
<path d="M150.94 114.414L133.753 100.322L134.138 99.4563C136.299 94.6047 137.957 89.6534 139.058 84.7519L139.502 82.7859L156.829 96.9965L156.661 97.744C155.524 102.818 153.825 107.927 151.601 112.929L150.94 114.414ZM136.793 99.5967L149.979 110.414C151.719 106.292 153.087 102.106 154.065 97.9433L141.019 87.2434C139.977 91.3702 138.559 95.5152 136.793 99.5967Z" fill="black"/>
<path d="M143.012 49.812C142.333 49.2548 141.626 48.7157 140.915 48.2129L129.803 39.0442C132.33 41.4632 134.46 44.2039 136.181 47.2299C139.533 53.0645 141.4 59.9003 141.834 67.2661L157.001 79.7055C156.276 67.6058 151.669 56.9558 143.012 49.812Z" fill="#FFFF3F"/>
<path d="M158.41 82.4643L140.625 67.8777L140.594 67.3341C140.163 59.9864 138.315 53.4315 135.103 47.846C133.432 44.9106 131.361 42.256 128.942 39.9412L130.591 38.0839L141.667 47.2209C142.419 47.7554 143.139 48.3035 143.801 48.8517C152.471 56.0045 157.463 66.6455 158.238 79.624L158.41 82.4643ZM143.04 66.641L155.506 76.8652C154.251 65.9116 149.694 56.9332 142.22 50.7679C141.595 50.2514 140.911 49.7305 140.195 49.2231L140.122 49.1688L137.472 46.9808C140.666 52.6795 142.537 59.2888 143.04 66.641Z" fill="black"/>
<path d="M156.997 79.701L141.831 67.2616C142.161 72.9377 141.641 78.9263 140.272 85.0237L155.452 97.4722C156.816 91.3702 157.337 85.3771 156.997 79.701Z" fill="#FFFF3F"/>
<path d="M156.222 99.71L138.891 85.4948L139.058 84.7474C140.399 78.7723 140.916 72.915 140.589 67.3295L140.422 64.4983L158.202 79.0804L158.234 79.624C158.578 85.4224 158.053 91.5152 156.657 97.7394L156.222 99.71ZM141.649 84.5435L154.655 95.2072C155.647 90.0973 156.028 85.1007 155.788 80.3125L143.167 69.9615C143.221 74.6908 142.714 79.5787 141.649 84.5435Z" fill="black"/>
<path d="M141.409 128.222C140.123 130.029 138.759 131.81 137.314 133.558C113.337 162.627 77.0109 172.249 56.1729 155.053L55.5433 154.514L42.5693 143.742C42.8593 143.959 43.1492 144.163 43.4482 144.371C46.2069 146.278 49.1922 147.769 52.3451 148.838C62.1299 152.204 73.5727 151.678 85.0336 147.71C98.9543 148.199 118.945 144.91 141.409 128.222Z" fill="#1D1D1B"/>
<path d="M230.115 233.2C212.539 233.2 194.247 228.412 181.314 219.374C170.193 211.605 164.517 201.92 165.332 192.104C166.125 182.573 172.965 174.278 184.594 168.752C207.805 157.717 244.226 160.983 265.78 176.036C276.901 183.805 282.577 193.49 281.762 203.306C280.969 212.838 274.129 221.132 262.5 226.659C253.218 231.075 241.826 233.2 230.115 233.2ZM217.096 167.932C206.238 167.932 195.687 169.902 187.09 173.988C177.404 178.595 171.728 185.2 171.117 192.584C170.478 200.258 175.28 208.086 184.639 214.618C204.666 228.607 238.482 231.66 260.013 221.422C269.699 216.815 275.375 210.21 275.986 202.826C276.625 195.153 271.823 187.325 262.464 180.792C250.433 172.389 233.427 167.932 217.096 167.932Z" fill="#1D1D1B"/>
<path d="M91.4257 208.656C91.4257 213.744 90.2208 218.55 88.0826 222.799L59.8652 208.656L89.4507 197.653C90.7281 201.078 91.4257 204.783 91.4257 208.656Z" fill="#1D1D1B"/>
<path d="M295.048 139.61C289.354 145.209 281.539 148.67 272.919 148.67C263.573 148.67 255.17 144.607 249.395 138.147L273.924 129.019L295.048 139.61Z" fill="#1D1D1B"/>
<path d="M392.611 188.512L358.605 201.164C358.088 198.908 357.816 196.557 357.816 194.142C357.816 186.718 360.38 179.886 364.67 174.505L392.611 188.512Z" fill="#1D1D1B"/>
<path d="M201.952 259.433L178.555 268.14L154.369 256.022C160.081 250.31 167.964 246.776 176.684 246.776C187.017 246.776 196.195 251.75 201.952 259.433Z" fill="#1D1D1B"/>
<path d="M250.636 242.341L318.49 217.68V260.742L250.636 285.408V242.341Z" fill="#FFFF3F"/>
<path d="M317.249 219.456V259.873L251.882 283.637V243.211L317.249 219.456ZM319.736 215.909L249.395 241.472V287.184L319.736 261.612V215.909Z" fill="#1D1D1B"/>
<path d="M136.395 181.218L203.561 156.865L316.652 215.764L249.486 240.117L136.395 181.218Z" fill="#FFFF3F"/>
<path d="M203.47 158.219L313.572 215.56L249.577 238.763L139.475 181.422L203.47 158.219ZM203.651 155.51L133.31 181.014L249.395 241.472L319.737 215.968L203.651 155.51Z" fill="#1D1D1B"/>
<path d="M235.661 194.573C232.064 191.837 228.259 192.38 222.606 194.953C218.524 196.756 216.966 196.557 215.53 195.461C214.089 194.364 214.388 192.956 216.834 191.547C219.036 190.278 220.875 190.038 223.031 190.863C223.462 191.026 224.037 190.971 224.404 190.758L226.361 189.63C226.85 189.35 226.909 188.901 226.497 188.589L226.393 188.512C223.643 187.076 219.693 187.012 216.671 188.48L214.202 186.604C213.79 186.292 213.115 186.269 212.399 186.541L210.565 187.601C210.076 187.882 210.017 188.33 210.411 188.792L212.775 190.591C209.518 193.019 209.251 195.927 211.82 197.88C215.213 200.462 218.995 200.068 224.649 197.495C228.59 195.909 230.307 195.746 231.951 196.996C233.595 198.247 233.016 200.095 230.692 201.436C227.512 203.27 225.278 203.044 223.371 202.083C222.837 201.843 222.266 201.898 221.899 202.106L219.82 203.307C219.33 203.587 219.272 204.036 219.684 204.348L219.788 204.425C222.846 206.097 226.655 206.378 231.208 204.439L233.677 206.315C234.089 206.627 234.764 206.65 235.48 206.373L237.315 205.313C237.804 205.033 237.863 204.584 237.469 204.122L235 202.247C238.153 199.741 238.438 196.688 235.661 194.573Z" fill="#0A2E67"/>
<path d="M232.145 211.039C219.724 214.355 205.885 210.373 201.513 202.305C199.031 197.961 199.774 193.132 203.248 189.064C203.534 188.625 203.47 188.249 202.954 187.859L201.513 186.763C201.101 186.45 200.549 186.355 199.955 186.559C199.833 186.632 199.588 186.772 199.57 186.922C191.036 195.972 195.058 207.538 208.499 212.851C216.458 215.959 226.143 216.29 234.841 213.744C235.534 213.617 235.819 213.177 235.529 212.797C235.547 212.647 235.448 212.57 235.239 212.412L233.799 211.316C233.5 211.089 232.721 210.985 232.145 211.039Z" fill="#0A2E67"/>
<path d="M213.029 179.162C212.335 179.288 212.05 179.728 212.34 180.108C212.322 180.258 212.422 180.335 212.63 180.493L214.07 181.59C214.483 181.902 215.262 182.002 215.833 181.948C228.254 178.632 242.093 182.613 246.464 190.681C248.947 195.026 248.204 199.855 244.729 203.923C244.444 204.362 244.508 204.738 245.024 205.128L246.464 206.224C246.877 206.536 247.429 206.632 248.023 206.428C248.145 206.355 248.39 206.215 248.408 206.065C256.942 197.014 252.92 185.449 239.479 180.136C231.416 176.946 221.608 176.688 213.029 179.162Z" fill="#0A2E67"/>
<path d="M297.993 178.369C289.943 178.369 281.15 174.559 277.979 169.689C276.579 167.538 276.366 165.322 277.386 163.442C278.849 160.747 282.595 159.202 287.664 159.202C295.714 159.202 304.507 163.012 307.678 167.882C309.077 170.034 309.29 172.249 308.271 174.129C306.812 176.82 303.066 178.369 297.993 178.369ZM287.664 162.518C283.229 162.518 280.924 163.868 280.298 165.023C279.877 165.803 280.031 166.767 280.756 167.882C283.288 171.769 291.184 175.053 297.993 175.053C302.427 175.053 304.733 173.703 305.358 172.548C305.78 171.769 305.626 170.808 304.901 169.689C302.369 165.803 294.473 162.518 287.664 162.518Z" fill="#1D1D1B"/>
<path d="M157.654 234.468C148.422 234.468 138.352 230.111 134.733 224.552C133.165 222.147 132.925 219.678 134.058 217.594C135.702 214.564 139.947 212.824 145.713 212.824C154.945 212.824 165.016 217.177 168.64 222.74C170.207 225.141 170.447 227.615 169.315 229.698C167.67 232.729 163.421 234.468 157.654 234.468ZM145.713 216.14C140.477 216.14 137.763 217.707 136.97 219.175C136.431 220.167 136.612 221.368 137.509 222.745C140.481 227.302 149.704 231.157 157.654 231.157C162.891 231.157 165.604 229.59 166.397 228.126C166.936 227.134 166.755 225.934 165.858 224.557C162.886 219.991 153.663 216.14 145.713 216.14Z" fill="#1D1D1B"/>
</svg>
