<svg width="175" height="30" viewBox="0 0 175 30" fill="none" xmlns="http://www.w3.org/2000/svg">
<path d="M3.36 20.5L0.4 9.3H2.592L4.608 18.212L6.976 9.3H9.232L11.536 18.212L13.552 9.3H15.76L12.72 20.5H10.288L8.064 12.196L5.776 20.5H3.36ZM18.2443 20.5V9.3H20.2923V13.956H25.3163V9.3H27.3643V20.5H25.3163V15.62H20.2923V20.5H18.2443ZM30.5411 20.5V9.3H37.8531V10.948H32.5891V14.02H37.3731V15.62H32.5891V18.852H37.8531V20.5H30.5411ZM40.7911 20.5V9.3H44.9031C45.7991 9.3 46.5351 9.45467 47.1111 9.764C47.6978 10.0627 48.1351 10.4733 48.4231 10.996C48.7111 11.508 48.8551 12.0787 48.8551 12.708C48.8551 13.3907 48.6738 14.0147 48.3111 14.58C47.9591 15.1453 47.4045 15.556 46.6471 15.812L48.9671 20.5H46.6151L44.5351 16.084H42.8391V20.5H40.7911ZM42.8391 14.58H44.7751C45.4578 14.58 45.9591 14.4147 46.2791 14.084C46.5991 13.7533 46.7591 13.316 46.7591 12.772C46.7591 12.2387 46.5991 11.812 46.2791 11.492C45.9698 11.172 45.4631 11.012 44.7591 11.012H42.8391V14.58ZM51.7599 20.5V9.3H59.0719V10.948H53.8079V14.02H58.5919V15.62H53.8079V18.852H59.0719V20.5H51.7599ZM69.0944 20.5L66.1344 9.3H68.3264L70.3424 18.212L72.7104 9.3H74.9664L77.2704 18.212L79.2864 9.3H81.4944L78.4544 20.5H76.0224L73.7984 12.196L71.5104 20.5H69.0944ZM83.9786 20.5V9.3H91.2906V10.948H86.0266V14.02H90.8106V15.62H86.0266V18.852H91.2906V20.5H83.9786ZM99.0411 20.5V9.3H101.089V18.9H106.049V20.5H99.0411ZM108.854 20.5V9.3H116.166V10.948H110.902V14.02H115.686V15.62H110.902V18.852H116.166V20.5H108.854ZM119.104 20.5V9.3H121.152L126.416 17.188V9.3H128.464V20.5H126.416L121.152 12.628V20.5H119.104ZM131.635 20.5V9.3H135.459C136.771 9.3 137.848 9.53467 138.691 10.004C139.544 10.4627 140.174 11.1133 140.579 11.956C140.995 12.788 141.203 13.7693 141.203 14.9C141.203 16.0307 140.995 17.0173 140.579 17.86C140.174 18.692 139.544 19.3427 138.691 19.812C137.848 20.2707 136.771 20.5 135.459 20.5H131.635ZM133.683 18.74H135.363C136.302 18.74 137.043 18.5907 137.587 18.292C138.131 17.9827 138.52 17.5453 138.755 16.98C138.99 16.404 139.107 15.7107 139.107 14.9C139.107 14.1 138.99 13.412 138.755 12.836C138.52 12.26 138.131 11.8173 137.587 11.508C137.043 11.1987 136.302 11.044 135.363 11.044H133.683V18.74Z" fill="#00FFBD"/>
<path d="M0 22.5H141.923V23.3H0V22.5Z" fill="#00FFBD"/>
<path d="M173.995 14.8522C174 14.8139 174 14.775 173.995 14.7366C174.002 14.7023 174.002 14.667 173.995 14.6326L173.926 14.5401L166.564 9.57094C166.49 9.52524 166.401 9.50936 166.315 9.52651C166.229 9.54365 166.153 9.59257 166.102 9.66341C166.057 9.73615 166.042 9.82332 166.059 9.90711C166.076 9.9909 166.125 10.065 166.195 10.1141L172.666 14.4824H150.397C150.349 14.4733 150.299 14.4749 150.251 14.4873C150.203 14.4996 150.159 14.5223 150.121 14.5538C150.083 14.5852 150.053 14.6246 150.032 14.6692C150.011 14.7138 150 14.7625 150 14.8117C150 14.861 150.011 14.9097 150.032 14.9543C150.053 14.9988 150.083 15.0382 150.121 15.0697C150.159 15.1011 150.203 15.1239 150.251 15.1362C150.299 15.1485 150.349 15.1502 150.397 15.1411H172.712L166.403 19.8907C166.334 19.9415 166.288 20.0174 166.275 20.1018C166.262 20.1862 166.283 20.2724 166.333 20.3414C166.363 20.3843 166.403 20.4192 166.449 20.4434C166.495 20.4675 166.547 20.4801 166.599 20.4801C166.671 20.4802 166.74 20.4557 166.796 20.4108L173.891 15.0718L173.995 14.8522Z" fill="#00FFBD" stroke="#00FFBD" stroke-width="0.5"/>
</svg>
