<svg width="119" height="150" viewBox="0 0 119 150" fill="none" xmlns="http://www.w3.org/2000/svg">
<path opacity="0.5" d="M51.1439 33.0421C51.1478 37.2038 50.3257 41.3247 48.7253 45.1652C47.1248 49.0057 44.778 52.4891 41.8214 55.4129C38.8647 58.3367 35.3572 60.6425 31.5028 62.1962C27.6484 63.7499 23.5241 64.5206 19.3696 64.4633C15.2501 64.4633 11.1709 63.6505 7.36499 62.0715C3.55905 60.4924 0.100891 58.1779 -2.81205 55.2602C-5.72499 52.3425 -8.03566 48.8787 -9.61213 45.0665C-11.1886 41.2543 -12 37.1684 -12 33.0421C-12 28.9159 -11.1886 24.83 -9.61213 21.0178C-8.03566 17.2056 -5.72499 13.7418 -2.81205 10.8241C0.100891 7.90635 3.55905 5.59189 7.36499 4.01283C11.1709 2.43377 15.2501 1.62104 19.3696 1.62104C23.5241 1.56373 27.6484 2.33435 31.5028 3.88806C35.3572 5.44178 38.8647 7.74759 41.8214 10.6714C44.778 13.5952 47.1248 17.0786 48.7253 20.9191C50.3257 24.7596 51.1478 28.8805 51.1439 33.0421ZM39.4106 33.0421C39.4106 27.7182 37.2991 22.6124 33.5407 18.8478C29.7823 15.0832 24.6848 12.9683 19.3696 12.9683C14.0544 12.9683 8.95694 15.0832 5.19853 18.8478C1.44012 22.6124 -0.671329 27.7182 -0.671329 33.0421C-0.671329 38.3661 1.44012 43.4719 5.19853 47.2365C8.95694 51.0011 14.0544 53.116 19.3696 53.116C24.6848 53.116 29.7823 51.0011 33.5407 47.2365C37.2991 43.4719 39.4106 38.3661 39.4106 33.0421ZM93.8421 0L102.554 5.88977L9.65934 150L0.542459 143.705L93.8421 0ZM118.738 116.958C118.818 123.269 117.023 129.462 113.581 134.749C110.139 140.036 105.205 144.178 99.4065 146.649C93.608 149.12 87.2069 149.808 81.0169 148.627C74.8269 147.445 69.1275 144.446 64.6433 140.011C60.159 135.577 57.0924 129.907 55.8332 123.723C54.574 117.538 55.1792 111.118 57.5718 105.279C59.9643 99.44 64.0362 94.4453 69.2699 90.9299C74.5035 87.4145 80.6626 85.5373 86.964 85.5367C91.1184 85.4794 95.2428 86.2501 99.0972 87.8038C102.952 89.3575 106.459 91.6633 109.416 94.5871C112.372 97.5109 114.719 100.994 116.32 104.835C117.92 108.675 118.742 112.796 118.738 116.958ZM107.005 116.958C106.925 113.006 105.683 109.165 103.433 105.918C101.183 102.671 98.0255 100.161 94.3572 98.7035C90.6889 97.2461 86.6726 96.9059 82.8121 97.7257C78.9516 98.5454 75.4186 100.488 72.6561 103.311C69.8937 106.134 68.0247 109.711 67.2837 113.594C66.5426 117.476 66.9624 121.491 68.4904 125.136C70.0185 128.78 72.5867 131.892 75.8731 134.08C79.1594 136.268 83.0177 137.436 86.964 137.437C89.625 137.419 92.2563 136.875 94.7063 135.834C97.1562 134.794 99.3765 133.278 101.239 131.375C103.102 129.471 104.57 127.218 105.56 124.743C106.55 122.269 107.041 119.623 107.005 116.958Z" fill="url(#paint0_linear_472_1035)"/>
<defs>
<linearGradient id="paint0_linear_472_1035" x1="118.741" y1="70.626" x2="-172.69" y2="70.626" gradientUnits="userSpaceOnUse">
<stop offset="0.0730484" stop-color="#5A33E3"/>
<stop offset="1" stop-color="#04053E" stop-opacity="0"/>
</linearGradient>
</defs>
</svg>
