<svg width="272" height="49" viewBox="0 0 272 49" fill="none" xmlns="http://www.w3.org/2000/svg">
<g clip-path="url(#clip0_472_645)">
<path d="M9.11579 16.7382C4.86175 14.7676 1.08782 12.7726 1.08782 7.80351C1.08782 4.361 3.93802 0.0791626 9.55943 0.0791626C11.1854 0.089519 12.7866 0.479831 14.2352 1.219C15.6838 1.95816 16.9399 3.02575 17.9034 4.33667L15.2598 6.4776C15.2598 6.4776 13.2057 3.43652 9.55943 3.43652C6.33244 3.43652 4.61259 5.70516 4.61259 7.80351C4.61259 10.7838 7.12855 11.9576 11.1517 13.8005C15.6366 15.8563 18.4443 17.7478 18.4443 22.4858C18.4443 27.2238 14.5063 30.4596 9.32849 30.4596C2.38834 30.4596 0 24.3287 0 24.3287L2.93528 22.5649C2.93528 22.5649 4.69767 27.0961 9.34672 27.0961C12.1605 27.0961 14.8162 25.5026 14.8162 22.4798C14.8162 19.4569 12.4096 18.2466 9.11579 16.7382Z" fill="#1C1C1C"/>
<path d="M33.917 3.43652H25.5244V0.0791626H45.8648V3.43652H37.4418V30.2953H33.917V3.43652Z" fill="#1C1C1C"/>
<path d="M63.8103 0L49.3892 30.4108H78.2376L63.8103 0ZM63.8103 8.3204L72.6223 26.8588H54.9984L63.8103 8.3204Z" fill="#1C1C1C"/>
<path d="M107.882 6.87893C106.855 5.76208 105.602 4.87732 104.206 4.28369C102.81 3.69006 101.304 3.40121 99.7875 3.43643C93.4186 3.43643 89.0552 9.01985 89.0552 15.2723C89.0552 21.5248 93.4186 27.1021 99.7875 27.1021C101.392 27.073 102.973 26.7115 104.431 26.0405C105.889 25.3695 107.193 24.4036 108.259 23.2034L110.647 25.6363C109.264 27.1418 107.586 28.3468 105.718 29.1765C103.85 30.0062 101.831 30.4428 99.7875 30.4595C91.322 30.4595 85.2812 23.7691 85.2812 15.2541C85.2812 6.73904 91.322 0.0486628 99.7875 0.0486628C101.758 0.0194777 103.714 0.404429 105.527 1.17865C107.34 1.95286 108.97 3.09913 110.313 4.54338L107.882 6.87893Z" fill="#1C1C1C"/>
<path d="M124.735 13.8857L136.597 0.0791626H141.088L128.679 14.427L143.422 30.4596H138.621L124.735 15.4366V30.4596H121.216V0.0791626H124.735V13.8857Z" fill="#1C1C1C"/>
<path d="M178.669 30.4596L170.24 7.34734L161.775 30.4596L150.441 0.0791626H154.361L161.848 20.6004L169.14 0.0791626H171.571L178.761 20.6004L186.327 0.0791626H190.058L178.669 30.4596Z" fill="#1C1C1C"/>
<path d="M200.626 0.0791626H204.145V30.4596H200.626V0.0791626Z" fill="#1C1C1C"/>
<path d="M223.853 16.7382C219.599 14.7676 215.801 12.797 215.801 7.80351C215.801 4.361 218.651 0.0791626 224.272 0.0791626C225.898 0.0904673 227.499 0.481194 228.947 1.22028C230.396 1.95937 231.652 3.02644 232.616 4.33667L229.973 6.4776C229.973 6.4776 227.919 3.43652 224.272 3.43652C221.045 3.43652 219.325 5.70516 219.325 7.80351C219.325 10.7777 221.841 11.9576 225.865 13.8005C230.35 15.8563 233.157 17.7478 233.157 22.4858C233.157 27.2238 229.219 30.4596 224.041 30.4596C217.101 30.4596 214.713 24.3287 214.713 24.3287L217.648 22.5649C217.648 22.5649 219.411 27.0961 224.06 27.0961C226.873 27.0961 229.529 25.5026 229.529 22.4798C229.529 19.4569 227.123 18.2466 223.853 16.7382Z" fill="#1C1C1C"/>
<path d="M247.245 13.2166H259.654V16.574H247.245V27.1022H260.912V30.4596H243.726V0.0791626H260.912V3.43652H247.245V13.2166Z" fill="#1C1C1C"/>
<path d="M269.165 0.875837H269.773C269.843 0.865531 269.914 0.869179 269.983 0.88657C270.052 0.903961 270.116 0.934752 270.172 0.977163C270.229 1.01957 270.277 1.07277 270.312 1.13367C270.348 1.19457 270.372 1.26198 270.381 1.332C270.385 1.36233 270.385 1.39289 270.381 1.42323C270.387 1.53551 270.355 1.64646 270.29 1.7381C270.225 1.82973 270.131 1.89667 270.023 1.92805L270.442 2.59709H270.114L269.749 1.98887H269.457V2.59709H269.177L269.165 0.875837ZM269.773 1.7395C269.852 1.74815 269.931 1.72565 269.994 1.67679C270.056 1.62793 270.097 1.55658 270.108 1.47797V1.42931C270.108 1.2286 269.974 1.13129 269.773 1.13129H269.451V1.7395H269.773Z" fill="#1C1C1C"/>
<path d="M269.742 3.47296C269.286 3.46643 268.851 3.28331 268.527 2.96206C268.366 2.80403 268.238 2.61598 268.15 2.40858C268.057 2.19681 268.009 1.96792 268.009 1.7365C268.009 1.50508 268.057 1.27619 268.15 1.06442C268.234 0.857582 268.358 0.669448 268.515 0.510946C268.674 0.352176 268.862 0.224325 269.068 0.133852C269.386 0.000451192 269.738 -0.0349245 270.076 0.032239C270.415 0.0994026 270.726 0.26606 270.97 0.510946C271.298 0.832123 271.487 1.26849 271.499 1.72738C271.499 1.97076 271.448 2.21142 271.347 2.43291C271.173 2.84143 270.846 3.16492 270.435 3.33307C270.216 3.42556 269.98 3.47313 269.742 3.47296ZM269.742 0.298071C269.55 0.299983 269.36 0.339231 269.183 0.413632C269.014 0.486762 268.86 0.589779 268.728 0.71774C268.527 0.92107 268.392 1.1791 268.338 1.45939C268.284 1.73969 268.313 2.02972 268.424 2.29302C268.491 2.46529 268.594 2.62093 268.728 2.74918C268.858 2.88086 269.013 2.98617 269.183 3.05937C269.361 3.13184 269.551 3.16902 269.742 3.16885C269.934 3.16965 270.124 3.13245 270.302 3.05937C270.473 2.98771 270.628 2.88221 270.757 2.74918C270.89 2.62176 270.996 2.46862 271.067 2.2991C271.16 2.08054 271.197 1.84245 271.175 1.60614C271.152 1.36983 271.072 1.14267 270.941 0.945009C270.81 0.747346 270.632 0.585344 270.422 0.473504C270.213 0.361665 269.98 0.303478 269.742 0.304153V0.298071Z" fill="#1C1C1C"/>
</g>
<defs>
<clipPath id="clip0_472_645">
<rect width="271.486" height="49" fill="white"/>
</clipPath>
</defs>
</svg>
