<svg width="234" height="263" viewBox="0 0 234 263" fill="none" xmlns="http://www.w3.org/2000/svg">
<path d="M224.683 0L215.366 19.6327H234L224.683 0ZM152.914 81.1246L143.597 100.757H162.231L152.914 81.1246ZM224.683 81.1246L215.366 100.757H234L224.683 81.1246ZM81.1056 162.243L71.7887 181.843H90.4226L81.1056 162.243ZM152.875 162.243L143.558 181.843H162.192L152.875 162.243ZM224.644 162.243L215.327 181.843H233.961L224.644 162.243ZM9.31694 243.367L0 263H18.6339L9.31694 243.367ZM81.0861 243.367L71.7691 263H90.403L81.0861 243.367ZM152.855 243.367L143.538 263H162.172L152.855 243.367ZM224.624 243.367L215.307 263H233.941L224.624 243.367Z" fill="url(#paint0_linear_472_534)"/>
<defs>
<linearGradient id="paint0_linear_472_534" x1="238.828" y1="258.165" x2="102.667" y2="122.182" gradientUnits="userSpaceOnUse">
<stop stop-color="#00FFBD"/>
<stop offset="0.53" stop-color="#00FFBD" stop-opacity="0.51"/>
<stop offset="0.95" stop-color="#00FFBD" stop-opacity="0.13"/>
<stop offset="1" stop-color="#00FFBD" stop-opacity="0"/>
</linearGradient>
</defs>
</svg>
