<svg width="267" height="581" viewBox="0 0 267 581" fill="none" xmlns="http://www.w3.org/2000/svg">
<path d="M0.00390625 6.44694L3.06755 0L6.13119 6.44694H0.00390625Z" fill="#00FFBD"/>
<path d="M23.6034 6.44694L26.667 0L29.7307 6.44694H23.6034Z" fill="#00FFBD"/>
<path d="M47.2029 6.44694L50.2665 0L53.3301 6.44694H47.2029Z" fill="#00FFBD"/>
<path d="M70.8023 6.44694L73.866 0L76.9296 6.44694H70.8023Z" fill="#00FFBD"/>
<path d="M0.00390625 39.8099L3.06755 33.363L6.13119 39.8099H0.00390625Z" fill="#00FFBD"/>
<path d="M23.6034 39.8099L26.667 33.363L29.7307 39.8099H23.6034Z" fill="#00FFBD"/>
<path d="M47.2029 39.8099L50.2665 33.363L53.3301 39.8099H47.2029Z" fill="#00FFBD"/>
<path d="M70.8023 39.8099L73.866 33.363L76.9296 39.8099H70.8023Z" fill="#00FFBD"/>
<path d="M0.00390625 73.1729L3.06755 66.726L6.13119 73.1729H0.00390625Z" fill="#00FFBD"/>
<path d="M23.6034 73.1729L26.667 66.726L29.7307 73.1729H23.6034Z" fill="#00FFBD"/>
<path d="M47.2029 73.1729L50.2665 66.726L53.3301 73.1729H47.2029Z" fill="#00FFBD"/>
<path d="M70.8023 73.1729L73.866 66.726L76.9296 73.1729H70.8023Z" fill="#00FFBD"/>
<path d="M0.00390625 106.536L3.06755 100.089L6.13119 106.536H0.00390625Z" fill="#00FFBD"/>
<path d="M23.6034 106.536L26.667 100.089L29.7307 106.536H23.6034Z" fill="#00FFBD"/>
<path d="M47.2029 106.536L50.2665 100.089L53.3301 106.536H47.2029Z" fill="#00FFBD"/>
<path d="M70.8023 106.536L73.866 100.089L76.9296 106.536H70.8023Z" fill="#00FFBD"/>
<path d="M0.00390625 139.899L3.06755 133.452L6.13119 139.899H0.00390625Z" fill="#00FFBD"/>
<path d="M23.6034 139.899L26.667 133.452L29.7307 139.899H23.6034Z" fill="#00FFBD"/>
<path d="M47.2029 139.899L50.2665 133.452L53.3301 139.899H47.2029Z" fill="#00FFBD"/>
<path d="M70.8023 139.899L73.866 133.452L76.9296 139.899H70.8023Z" fill="#00FFBD"/>
<path d="M0.00390625 173.262L3.06755 166.815L6.13119 173.262H0.00390625Z" fill="#00FFBD"/>
<path d="M23.6034 173.262L26.667 166.815L29.7307 173.262H23.6034Z" fill="#00FFBD"/>
<path d="M47.2029 173.262L50.2665 166.815L53.3301 173.262H47.2029Z" fill="#00FFBD"/>
<path d="M70.8023 173.262L73.866 166.815L76.9296 173.262H70.8023Z" fill="#00FFBD"/>
<path d="M94.875 6.44694L97.9386 0L101.002 6.44694H94.875Z" fill="#00FFBD"/>
<path d="M118.474 6.44694L121.538 0L124.602 6.44694H118.474Z" fill="#00FFBD"/>
<path d="M142.074 6.44694L145.138 0L148.201 6.44694H142.074Z" fill="#00FFBD"/>
<path d="M165.673 6.44694L168.737 0L171.801 6.44694H165.673Z" fill="#00FFBD"/>
<path d="M94.875 39.8099L97.9386 33.363L101.002 39.8099H94.875Z" fill="#00FFBD"/>
<path d="M118.474 39.8099L121.538 33.363L124.602 39.8099H118.474Z" fill="#00FFBD"/>
<path d="M142.074 39.8099L145.138 33.363L148.201 39.8099H142.074Z" fill="#00FFBD"/>
<path d="M165.673 39.8099L168.737 33.363L171.801 39.8099H165.673Z" fill="#00FFBD"/>
<path d="M94.875 73.1729L97.9386 66.726L101.002 73.1729H94.875Z" fill="#00FFBD"/>
<path d="M118.474 73.1729L121.538 66.726L124.602 73.1729H118.474Z" fill="#00FFBD"/>
<path d="M142.074 73.1729L145.138 66.726L148.201 73.1729H142.074Z" fill="#00FFBD"/>
<path d="M165.673 73.1729L168.737 66.726L171.801 73.1729H165.673Z" fill="#00FFBD"/>
<path d="M94.875 106.536L97.9386 100.089L101.002 106.536H94.875Z" fill="#00FFBD"/>
<path d="M118.474 106.536L121.538 100.089L124.602 106.536H118.474Z" fill="#00FFBD"/>
<path d="M142.074 106.536L145.138 100.089L148.201 106.536H142.074Z" fill="#00FFBD"/>
<path d="M165.673 106.536L168.737 100.089L171.801 106.536H165.673Z" fill="#00FFBD"/>
<path d="M94.875 139.899L97.9386 133.452L101.002 139.899H94.875Z" fill="#00FFBD"/>
<path d="M118.474 139.899L121.538 133.452L124.602 139.899H118.474Z" fill="#00FFBD"/>
<path d="M142.074 139.899L145.138 133.452L148.201 139.899H142.074Z" fill="#00FFBD"/>
<path d="M165.673 139.899L168.737 133.452L171.801 139.899H165.673Z" fill="#00FFBD"/>
<path d="M94.875 173.262L97.9386 166.815L101.002 173.262H94.875Z" fill="#00FFBD"/>
<path d="M118.474 173.262L121.538 166.815L124.602 173.262H118.474Z" fill="#00FFBD"/>
<path d="M142.074 173.262L145.138 166.815L148.201 173.262H142.074Z" fill="#00FFBD"/>
<path d="M165.673 173.262L168.737 166.815L171.801 173.262H165.673Z" fill="#00FFBD"/>
<path d="M189.744 6.44694L192.808 0L195.871 6.44694H189.744Z" fill="#00FFBD"/>
<path d="M213.344 6.44694L216.407 0L219.471 6.44694H213.344Z" fill="#00FFBD"/>
<path d="M236.943 6.44694L240.007 0L243.07 6.44694H236.943Z" fill="#00FFBD"/>
<path d="M260.543 6.44694L263.606 0L266.67 6.44694H260.543Z" fill="#00FFBD"/>
<path d="M189.744 39.8099L192.808 33.363L195.871 39.8099H189.744Z" fill="#00FFBD"/>
<path d="M213.344 39.8099L216.407 33.363L219.471 39.8099H213.344Z" fill="#00FFBD"/>
<path d="M236.943 39.8099L240.007 33.363L243.07 39.8099H236.943Z" fill="#00FFBD"/>
<path d="M260.543 39.8099L263.606 33.363L266.67 39.8099H260.543Z" fill="#00FFBD"/>
<path d="M189.744 73.1729L192.808 66.726L195.871 73.1729H189.744Z" fill="#00FFBD"/>
<path d="M213.344 73.1729L216.407 66.726L219.471 73.1729H213.344Z" fill="#00FFBD"/>
<path d="M236.943 73.1729L240.007 66.726L243.07 73.1729H236.943Z" fill="#00FFBD"/>
<path d="M260.543 73.1729L263.606 66.726L266.67 73.1729H260.543Z" fill="#00FFBD"/>
<path d="M189.744 106.536L192.808 100.089L195.871 106.536H189.744Z" fill="#00FFBD"/>
<path d="M213.344 106.536L216.407 100.089L219.471 106.536H213.344Z" fill="#00FFBD"/>
<path d="M236.943 106.536L240.007 100.089L243.07 106.536H236.943Z" fill="#00FFBD"/>
<path d="M260.543 106.536L263.606 100.089L266.67 106.536H260.543Z" fill="#00FFBD"/>
<path d="M189.744 139.899L192.808 133.452L195.871 139.899H189.744Z" fill="#00FFBD"/>
<path d="M213.344 139.899L216.407 133.452L219.471 139.899H213.344Z" fill="#00FFBD"/>
<path d="M236.943 139.899L240.007 133.452L243.07 139.899H236.943Z" fill="#00FFBD"/>
<path d="M260.543 139.899L263.606 133.452L266.67 139.899H260.543Z" fill="#00FFBD"/>
<path d="M189.744 173.262L192.808 166.815L195.871 173.262H189.744Z" fill="#00FFBD"/>
<path d="M213.344 173.262L216.407 166.815L219.471 173.262H213.344Z" fill="#00FFBD"/>
<path d="M236.943 173.262L240.007 166.815L243.07 173.262H236.943Z" fill="#00FFBD"/>
<path d="M260.543 173.262L263.606 166.815L266.67 173.262H260.543Z" fill="#00FFBD"/>
<path d="M0.00390625 212.447L3.06755 206L6.13119 212.447H0.00390625Z" fill="#00FFBD"/>
<path d="M23.6034 212.447L26.667 206L29.7307 212.447H23.6034Z" fill="#00FFBD"/>
<path d="M47.2029 212.447L50.2665 206L53.3301 212.447H47.2029Z" fill="#00FFBD"/>
<path d="M70.8023 212.447L73.866 206L76.9296 212.447H70.8023Z" fill="#00FFBD"/>
<path d="M0.00390625 245.81L3.06755 239.363L6.13119 245.81H0.00390625Z" fill="#00FFBD"/>
<path d="M23.6034 245.81L26.667 239.363L29.7307 245.81H23.6034Z" fill="#00FFBD"/>
<path d="M47.2029 245.81L50.2665 239.363L53.3301 245.81H47.2029Z" fill="#00FFBD"/>
<path d="M70.8023 245.81L73.866 239.363L76.9296 245.81H70.8023Z" fill="#00FFBD"/>
<path d="M0.00390625 279.173L3.06755 272.726L6.13119 279.173H0.00390625Z" fill="#00FFBD"/>
<path d="M23.6034 279.173L26.667 272.726L29.7307 279.173H23.6034Z" fill="#00FFBD"/>
<path d="M47.2029 279.173L50.2665 272.726L53.3301 279.173H47.2029Z" fill="#00FFBD"/>
<path d="M70.8023 279.173L73.866 272.726L76.9296 279.173H70.8023Z" fill="#00FFBD"/>
<path d="M0.00390625 312.536L3.06755 306.089L6.13119 312.536H0.00390625Z" fill="#00FFBD"/>
<path d="M23.6034 312.536L26.667 306.089L29.7307 312.536H23.6034Z" fill="#00FFBD"/>
<path d="M47.2029 312.536L50.2665 306.089L53.3301 312.536H47.2029Z" fill="#00FFBD"/>
<path d="M70.8023 312.536L73.866 306.089L76.9296 312.536H70.8023Z" fill="#00FFBD"/>
<path d="M0.00390625 345.899L3.06755 339.452L6.13119 345.899H0.00390625Z" fill="#00FFBD"/>
<path d="M23.6034 345.899L26.667 339.452L29.7307 345.899H23.6034Z" fill="#00FFBD"/>
<path d="M47.2029 345.899L50.2665 339.452L53.3301 345.899H47.2029Z" fill="#00FFBD"/>
<path d="M70.8023 345.899L73.866 339.452L76.9296 345.899H70.8023Z" fill="#00FFBD"/>
<path d="M0.00390625 379.262L3.06755 372.815L6.13119 379.262H0.00390625Z" fill="#00FFBD"/>
<path d="M23.6034 379.262L26.667 372.815L29.7307 379.262H23.6034Z" fill="#00FFBD"/>
<path d="M47.2029 379.262L50.2665 372.815L53.3301 379.262H47.2029Z" fill="#00FFBD"/>
<path d="M70.8023 379.262L73.866 372.815L76.9296 379.262H70.8023Z" fill="#00FFBD"/>
<path d="M94.875 212.447L97.9386 206L101.002 212.447H94.875Z" fill="#00FFBD"/>
<path d="M118.474 212.447L121.538 206L124.602 212.447H118.474Z" fill="#00FFBD"/>
<path d="M142.074 212.447L145.138 206L148.201 212.447H142.074Z" fill="#00FFBD"/>
<path d="M165.673 212.447L168.737 206L171.801 212.447H165.673Z" fill="#00FFBD"/>
<path d="M94.875 245.81L97.9386 239.363L101.002 245.81H94.875Z" fill="#00FFBD"/>
<path d="M118.474 245.81L121.538 239.363L124.602 245.81H118.474Z" fill="#00FFBD"/>
<path d="M142.074 245.81L145.138 239.363L148.201 245.81H142.074Z" fill="#00FFBD"/>
<path d="M165.673 245.81L168.737 239.363L171.801 245.81H165.673Z" fill="#00FFBD"/>
<path d="M94.875 279.173L97.9386 272.726L101.002 279.173H94.875Z" fill="#00FFBD"/>
<path d="M118.474 279.173L121.538 272.726L124.602 279.173H118.474Z" fill="#00FFBD"/>
<path d="M142.074 279.173L145.138 272.726L148.201 279.173H142.074Z" fill="#00FFBD"/>
<path d="M165.673 279.173L168.737 272.726L171.801 279.173H165.673Z" fill="#00FFBD"/>
<path d="M94.875 312.536L97.9386 306.089L101.002 312.536H94.875Z" fill="#00FFBD"/>
<path d="M118.474 312.536L121.538 306.089L124.602 312.536H118.474Z" fill="#00FFBD"/>
<path d="M142.074 312.536L145.138 306.089L148.201 312.536H142.074Z" fill="#00FFBD"/>
<path d="M165.673 312.536L168.737 306.089L171.801 312.536H165.673Z" fill="#00FFBD"/>
<path d="M94.875 345.899L97.9386 339.452L101.002 345.899H94.875Z" fill="#00FFBD"/>
<path d="M118.474 345.899L121.538 339.452L124.602 345.899H118.474Z" fill="#00FFBD"/>
<path d="M142.074 345.899L145.138 339.452L148.201 345.899H142.074Z" fill="#00FFBD"/>
<path d="M165.673 345.899L168.737 339.452L171.801 345.899H165.673Z" fill="#00FFBD"/>
<path d="M94.875 379.262L97.9386 372.815L101.002 379.262H94.875Z" fill="#00FFBD"/>
<path d="M118.474 379.262L121.538 372.815L124.602 379.262H118.474Z" fill="#00FFBD"/>
<path d="M142.074 379.262L145.138 372.815L148.201 379.262H142.074Z" fill="#00FFBD"/>
<path d="M165.673 379.262L168.737 372.815L171.801 379.262H165.673Z" fill="#00FFBD"/>
<path d="M189.744 212.447L192.808 206L195.871 212.447H189.744Z" fill="#00FFBD"/>
<path d="M213.344 212.447L216.407 206L219.471 212.447H213.344Z" fill="#00FFBD"/>
<path d="M236.943 212.447L240.007 206L243.07 212.447H236.943Z" fill="#00FFBD"/>
<path d="M260.543 212.447L263.606 206L266.67 212.447H260.543Z" fill="#00FFBD"/>
<path d="M189.744 245.81L192.808 239.363L195.871 245.81H189.744Z" fill="#00FFBD"/>
<path d="M213.344 245.81L216.407 239.363L219.471 245.81H213.344Z" fill="#00FFBD"/>
<path d="M236.943 245.81L240.007 239.363L243.07 245.81H236.943Z" fill="#00FFBD"/>
<path d="M260.543 245.81L263.606 239.363L266.67 245.81H260.543Z" fill="#00FFBD"/>
<path d="M189.744 279.173L192.808 272.726L195.871 279.173H189.744Z" fill="#00FFBD"/>
<path d="M213.344 279.173L216.407 272.726L219.471 279.173H213.344Z" fill="#00FFBD"/>
<path d="M236.943 279.173L240.007 272.726L243.07 279.173H236.943Z" fill="#00FFBD"/>
<path d="M260.543 279.173L263.606 272.726L266.67 279.173H260.543Z" fill="#00FFBD"/>
<path d="M189.744 312.536L192.808 306.089L195.871 312.536H189.744Z" fill="#00FFBD"/>
<path d="M213.344 312.536L216.407 306.089L219.471 312.536H213.344Z" fill="#00FFBD"/>
<path d="M236.943 312.536L240.007 306.089L243.07 312.536H236.943Z" fill="#00FFBD"/>
<path d="M260.543 312.536L263.606 306.089L266.67 312.536H260.543Z" fill="#00FFBD"/>
<path d="M189.744 345.899L192.808 339.452L195.871 345.899H189.744Z" fill="#00FFBD"/>
<path d="M213.344 345.899L216.407 339.452L219.471 345.899H213.344Z" fill="#00FFBD"/>
<path d="M236.943 345.899L240.007 339.452L243.07 345.899H236.943Z" fill="#00FFBD"/>
<path d="M260.543 345.899L263.606 339.452L266.67 345.899H260.543Z" fill="#00FFBD"/>
<path d="M189.744 379.262L192.808 372.815L195.871 379.262H189.744Z" fill="#00FFBD"/>
<path d="M213.344 379.262L216.407 372.815L219.471 379.262H213.344Z" fill="#00FFBD"/>
<path d="M236.943 379.262L240.007 372.815L243.07 379.262H236.943Z" fill="#00FFBD"/>
<path d="M260.543 379.262L263.606 372.815L266.67 379.262H260.543Z" fill="#00FFBD"/>
<path d="M0.00390625 413.447L3.06755 407L6.13119 413.447H0.00390625Z" fill="#00FFBD"/>
<path d="M23.6034 413.447L26.667 407L29.7307 413.447H23.6034Z" fill="#00FFBD"/>
<path d="M47.2029 413.447L50.2665 407L53.3301 413.447H47.2029Z" fill="#00FFBD"/>
<path d="M70.8023 413.447L73.866 407L76.9296 413.447H70.8023Z" fill="#00FFBD"/>
<path d="M0.00390625 446.81L3.06755 440.363L6.13119 446.81H0.00390625Z" fill="#00FFBD"/>
<path d="M23.6034 446.81L26.667 440.363L29.7307 446.81H23.6034Z" fill="#00FFBD"/>
<path d="M47.2029 446.81L50.2665 440.363L53.3301 446.81H47.2029Z" fill="#00FFBD"/>
<path d="M70.8023 446.81L73.866 440.363L76.9296 446.81H70.8023Z" fill="#00FFBD"/>
<path d="M0.00390625 480.173L3.06755 473.726L6.13119 480.173H0.00390625Z" fill="#00FFBD"/>
<path d="M23.6034 480.173L26.667 473.726L29.7307 480.173H23.6034Z" fill="#00FFBD"/>
<path d="M47.2029 480.173L50.2665 473.726L53.3301 480.173H47.2029Z" fill="#00FFBD"/>
<path d="M70.8023 480.173L73.866 473.726L76.9296 480.173H70.8023Z" fill="#00FFBD"/>
<path d="M0.00390625 513.536L3.06755 507.089L6.13119 513.536H0.00390625Z" fill="#00FFBD"/>
<path d="M23.6034 513.536L26.667 507.089L29.7307 513.536H23.6034Z" fill="#00FFBD"/>
<path d="M47.2029 513.536L50.2665 507.089L53.3301 513.536H47.2029Z" fill="#00FFBD"/>
<path d="M70.8023 513.536L73.866 507.089L76.9296 513.536H70.8023Z" fill="#00FFBD"/>
<path d="M0.00390625 546.899L3.06755 540.452L6.13119 546.899H0.00390625Z" fill="#00FFBD"/>
<path d="M23.6034 546.899L26.667 540.452L29.7307 546.899H23.6034Z" fill="#00FFBD"/>
<path d="M47.2029 546.899L50.2665 540.452L53.3301 546.899H47.2029Z" fill="#00FFBD"/>
<path d="M70.8023 546.899L73.866 540.452L76.9296 546.899H70.8023Z" fill="#00FFBD"/>
<path d="M0.00390625 580.262L3.06755 573.815L6.13119 580.262H0.00390625Z" fill="#00FFBD"/>
<path d="M23.6034 580.262L26.667 573.815L29.7307 580.262H23.6034Z" fill="#00FFBD"/>
<path d="M47.2029 580.262L50.2665 573.815L53.3301 580.262H47.2029Z" fill="#00FFBD"/>
<path d="M70.8023 580.262L73.866 573.815L76.9296 580.262H70.8023Z" fill="#00FFBD"/>
<path d="M94.875 413.447L97.9386 407L101.002 413.447H94.875Z" fill="#00FFBD"/>
<path d="M118.474 413.447L121.538 407L124.602 413.447H118.474Z" fill="#00FFBD"/>
<path d="M142.074 413.447L145.138 407L148.201 413.447H142.074Z" fill="#00FFBD"/>
<path d="M165.673 413.447L168.737 407L171.801 413.447H165.673Z" fill="#00FFBD"/>
<path d="M94.875 446.81L97.9386 440.363L101.002 446.81H94.875Z" fill="#00FFBD"/>
<path d="M118.474 446.81L121.538 440.363L124.602 446.81H118.474Z" fill="#00FFBD"/>
<path d="M142.074 446.81L145.138 440.363L148.201 446.81H142.074Z" fill="#00FFBD"/>
<path d="M165.673 446.81L168.737 440.363L171.801 446.81H165.673Z" fill="#00FFBD"/>
<path d="M94.875 480.173L97.9386 473.726L101.002 480.173H94.875Z" fill="#00FFBD"/>
<path d="M118.474 480.173L121.538 473.726L124.602 480.173H118.474Z" fill="#00FFBD"/>
<path d="M142.074 480.173L145.138 473.726L148.201 480.173H142.074Z" fill="#00FFBD"/>
<path d="M165.673 480.173L168.737 473.726L171.801 480.173H165.673Z" fill="#00FFBD"/>
<path d="M94.875 513.536L97.9386 507.089L101.002 513.536H94.875Z" fill="#00FFBD"/>
<path d="M118.474 513.536L121.538 507.089L124.602 513.536H118.474Z" fill="#00FFBD"/>
<path d="M142.074 513.536L145.138 507.089L148.201 513.536H142.074Z" fill="#00FFBD"/>
<path d="M165.673 513.536L168.737 507.089L171.801 513.536H165.673Z" fill="#00FFBD"/>
<path d="M94.875 546.899L97.9386 540.452L101.002 546.899H94.875Z" fill="#00FFBD"/>
<path d="M118.474 546.899L121.538 540.452L124.602 546.899H118.474Z" fill="#00FFBD"/>
<path d="M142.074 546.899L145.138 540.452L148.201 546.899H142.074Z" fill="#00FFBD"/>
<path d="M165.673 546.899L168.737 540.452L171.801 546.899H165.673Z" fill="#00FFBD"/>
<path d="M94.875 580.262L97.9386 573.815L101.002 580.262H94.875Z" fill="#00FFBD"/>
<path d="M118.474 580.262L121.538 573.815L124.602 580.262H118.474Z" fill="#00FFBD"/>
<path d="M142.074 580.262L145.138 573.815L148.201 580.262H142.074Z" fill="#00FFBD"/>
<path d="M165.673 580.262L168.737 573.815L171.801 580.262H165.673Z" fill="#00FFBD"/>
<path d="M189.744 413.447L192.808 407L195.871 413.447H189.744Z" fill="#00FFBD"/>
<path d="M213.344 413.447L216.407 407L219.471 413.447H213.344Z" fill="#00FFBD"/>
<path d="M236.943 413.447L240.007 407L243.07 413.447H236.943Z" fill="#00FFBD"/>
<path d="M260.543 413.447L263.606 407L266.67 413.447H260.543Z" fill="#00FFBD"/>
<path d="M189.744 446.81L192.808 440.363L195.871 446.81H189.744Z" fill="#00FFBD"/>
<path d="M213.344 446.81L216.407 440.363L219.471 446.81H213.344Z" fill="#00FFBD"/>
<path d="M236.943 446.81L240.007 440.363L243.07 446.81H236.943Z" fill="#00FFBD"/>
<path d="M260.543 446.81L263.606 440.363L266.67 446.81H260.543Z" fill="#00FFBD"/>
</svg>
