<svg width="437" height="487" viewBox="0 0 437 487" fill="none" xmlns="http://www.w3.org/2000/svg">
<path d="M305.265 14.4998L297.04 37.0826L299.505 37.9803L307.729 15.3975L305.265 14.4998Z" fill="#5A33E3"/>
<path d="M166.002 88.8128L163.537 89.71L184.438 147.139L186.903 146.242L166.002 88.8128Z" fill="#5A33E3"/>
<path d="M192.306 161.119L189.841 162.017L195.321 177.073L197.786 176.176L192.306 161.119Z" fill="#5A33E3"/>
<path d="M64.4723 56.8559L62.4629 58.5421L89.3968 90.6382L91.4062 88.952L64.4723 56.8559Z" fill="#5A33E3"/>
<path d="M167.449 179.661L165.439 181.348L174.645 192.319L176.655 190.633L167.449 179.661Z" fill="#5A33E3"/>
<path d="M36.3849 138.089L35.0732 140.361L86.7088 170.174L88.0205 167.902L36.3849 138.089Z" fill="#5A33E3"/>
<path d="M149.88 203.63L148.568 205.902L183.197 225.895L184.508 223.624L149.88 203.63Z" fill="#5A33E3"/>
<path d="M0.953703 206.471L0.498047 209.054L51.2576 218.007L51.7133 215.424L0.953703 206.471Z" fill="#5A33E3"/>
<path d="M61.8199 217.171L61.3643 219.755L76.7248 222.464L77.1804 219.881L61.8199 217.171Z" fill="#5A33E3"/>
<path d="M435.228 122.223L369.164 160.374L370.476 162.646L436.54 124.495L435.228 122.223Z" fill="#5A33E3"/>
<path d="M363.306 76.4815L343.303 100.326L345.312 102.012L365.316 78.1675L363.306 76.4815Z" fill="#5A33E3"/>
<path d="M328.829 117.518L288.64 165.424L290.649 167.11L330.839 119.204L328.829 117.518Z" fill="#5A33E3"/>
<path d="M297.056 37.092L260.009 138.815L262.474 139.712L299.521 37.9896L297.056 37.092Z" fill="#5A33E3"/>
<path d="M223.404 0H220.781V89.2609H223.404V0Z" fill="#5A33E3"/>
<path d="M223.404 101.172H220.781V115.919H223.404V101.172Z" fill="#5A33E3"/>
<path d="M226.735 174.268L402.563 237.58C410.574 240.487 415.183 248.924 413.268 257.219L362.789 472.679C360.52 482.463 350.169 488.063 340.739 484.66L164.912 421.348C156.9 418.441 152.292 410.005 154.206 401.709L204.686 186.25C206.954 176.466 217.235 170.865 226.735 174.268Z" fill="#00FFBD"/>
<path d="M346.341 487C344.285 487 342.228 486.646 340.243 485.937L164.416 422.624C155.766 419.505 150.803 410.43 152.93 401.426L203.41 185.966C204.615 180.932 207.876 176.678 212.414 174.197C216.951 171.716 222.34 171.29 227.232 173.063L403.059 236.375C411.709 239.494 416.672 248.569 414.545 257.573L364.065 473.033C362.86 478.067 359.599 482.392 355.061 484.802C352.296 486.22 349.318 487 346.341 487ZM220.992 174.551C218.44 174.551 215.888 175.19 213.548 176.466C209.649 178.593 206.884 182.279 205.82 186.533L155.412 401.993C153.639 409.65 157.822 417.449 165.266 420.143L341.094 483.455C345.277 484.944 349.885 484.589 353.785 482.462C357.684 480.336 360.449 476.649 361.513 472.395L411.992 256.935C413.765 249.278 409.582 241.479 402.137 238.785L226.31 175.473C224.537 174.835 222.765 174.551 220.992 174.551Z" fill="#1C1C1C"/>
<path d="M401.641 261.189L351.162 476.649C350.949 477.571 350.665 478.492 350.311 479.272L390.51 267.499C392.141 259.558 388.667 251.405 381.719 247.151L346.624 225.527L390.935 241.479C399.018 244.457 403.555 252.894 401.641 261.189Z" fill="#1D1D1B"/>
<path d="M306.07 441.412C305.999 441.412 305.857 441.412 305.786 441.412C305.077 441.271 304.652 440.562 304.794 439.853L349.672 248.427C349.814 247.718 350.523 247.293 351.232 247.435C351.941 247.577 352.366 248.286 352.225 248.995L307.346 440.42C307.204 440.987 306.637 441.412 306.07 441.412Z" fill="#1C1C1C"/>
<path d="M366.334 276.999L331.877 424.184C330.317 430.849 323.298 434.677 316.776 432.408L308.693 429.502L348.467 259.842L359.102 263.671C364.561 265.514 367.681 271.328 366.334 276.999Z" fill="#E333B2"/>
<path d="M366.334 276.999L331.878 424.184C330.389 430.636 323.724 434.393 317.485 432.621L357.259 262.962L359.103 263.6C364.562 265.514 367.681 271.328 366.334 276.999Z" fill="#1D1D1B"/>
<path d="M320.676 433.472C319.541 433.472 318.407 433.33 317.343 432.976L316.918 432.834L316.989 432.408L356.834 262.253L359.102 263.103C364.774 265.159 368.036 271.115 366.689 277.07L332.232 424.255C331.452 427.445 329.467 430.14 326.631 431.841C324.788 432.905 322.732 433.472 320.676 433.472ZM317.981 432.267C320.817 432.976 323.724 432.55 326.206 431.061C328.829 429.502 330.672 427.02 331.381 424.042L365.838 276.858C367.114 271.398 364.136 265.868 358.819 263.954L357.472 263.458L317.981 432.267Z" fill="#1C1C1C"/>
<path d="M320.888 264.025L286.432 411.21C284.872 417.874 277.853 421.703 271.33 419.434L263.248 416.527L303.022 246.868L313.657 250.696C319.116 252.61 322.235 258.353 320.888 264.025Z" fill="#E333B2"/>
<path d="M261.262 426.453C261.191 426.453 261.05 426.453 260.979 426.453C260.27 426.311 259.844 425.602 259.986 424.893L304.865 233.468C305.007 232.759 305.716 232.333 306.424 232.475C307.133 232.617 307.559 233.326 307.417 234.035L262.538 425.46C262.397 426.098 261.829 426.453 261.262 426.453Z" fill="#1C1C1C"/>
<path d="M320.888 264.025L286.431 411.21C284.871 417.803 277.994 421.632 271.613 419.505L311.387 249.845L313.656 250.625C319.115 252.61 322.235 258.353 320.888 264.025Z" fill="#1D1D1B"/>
<path d="M275.229 420.497C273.953 420.497 272.677 420.285 271.472 419.859L271.117 419.718L271.188 419.363L311.033 249.207L313.727 250.2C319.399 252.256 322.66 258.211 321.313 264.167L286.857 411.352C286.077 414.613 283.95 417.449 281.043 419.079C279.27 420.001 277.285 420.497 275.229 420.497ZM272.11 419.221C274.946 420.072 277.994 419.718 280.618 418.3C283.312 416.811 285.297 414.187 286.006 411.139L320.462 263.954C321.739 258.495 318.761 252.894 313.443 251.051L311.671 250.413L272.11 419.221Z" fill="#1C1C1C"/>
<path d="M158.957 151.864C158.957 169.447 148.109 184.123 133.859 187.242C132.086 187.597 130.243 187.809 128.329 187.88H128.045C111.1 187.809 97.417 171.716 97.417 151.935C97.417 132.083 111.171 115.99 128.187 115.99C130.101 115.99 132.015 116.202 133.859 116.628C148.109 119.676 158.957 134.281 158.957 151.864Z" fill="#FFFF3F"/>
<path d="M128.045 188.731C110.675 188.66 96.4951 172.141 96.4951 151.864C96.4951 131.587 110.675 115.068 128.116 115.068C130.101 115.068 132.086 115.281 134 115.706C148.96 118.967 159.736 134.21 159.736 151.935C159.736 169.66 148.889 184.903 134 188.164C132.086 188.589 130.172 188.802 128.258 188.802H128.045V188.731ZM128.187 116.769C111.667 116.769 98.2676 132.509 98.2676 151.864C98.2676 171.148 111.596 186.888 128.045 186.959H128.258C130.03 186.959 131.873 186.746 133.646 186.391C147.755 183.272 158.035 168.809 158.035 151.864C158.035 134.99 147.755 120.456 133.646 117.337C131.873 116.982 130.03 116.769 128.187 116.769Z" fill="#1C1C1C"/>
<path d="M170.301 151.864C170.301 171.715 156.547 187.809 139.531 187.809C139.248 187.809 138.964 187.809 138.68 187.809H138.539H128.329C130.244 187.809 132.087 187.597 133.859 187.171C148.11 184.052 158.957 169.376 158.957 151.793C158.957 134.21 148.11 119.534 133.859 116.415C132.016 115.989 130.102 115.777 128.188 115.777H138.61H138.751C139.035 115.777 139.319 115.777 139.531 115.777C156.547 115.919 170.301 132.012 170.301 151.864Z" fill="#1D1D1B"/>
<path d="M139.531 188.306C139.247 188.306 138.963 188.306 138.68 188.306H128.329V187.455C130.172 187.455 132.015 187.242 133.788 186.888C148.109 183.768 158.531 169.021 158.531 151.935C158.531 134.848 148.109 120.173 133.788 116.982C132.015 116.557 130.172 116.415 128.329 116.415H128.258V115.564H128.329H138.751C139.034 115.564 139.318 115.564 139.531 115.564C156.759 115.564 170.726 131.871 170.726 151.935C170.726 171.928 156.759 188.306 139.531 188.306ZM138.538 187.384H138.68C138.963 187.384 139.247 187.384 139.531 187.384C156.263 187.384 169.875 171.432 169.875 151.864C169.875 132.296 156.263 116.344 139.531 116.344C139.247 116.344 139.034 116.344 138.751 116.344H138.609H135.064C149.244 120.031 159.382 134.778 159.382 151.864C159.382 168.951 149.244 183.697 135.064 187.384H138.538Z" fill="#1C1C1C"/>
<path d="M195.398 38.9232C195.398 56.5059 184.551 71.1818 170.3 74.3014C168.528 74.6559 166.684 74.8686 164.77 74.9395H164.486C147.542 74.8686 133.858 58.7747 133.858 38.994C133.858 19.1425 147.613 3.04865 164.628 3.04865C166.542 3.04865 168.457 3.26134 170.3 3.68673C184.551 6.66445 195.398 21.2695 195.398 38.9232Z" fill="#FFFF3F"/>
<path d="M164.486 75.7193C147.116 75.6484 132.937 59.1291 132.937 38.8522C132.937 18.5753 147.116 2.05603 164.557 2.05603C166.542 2.05603 168.527 2.26872 170.442 2.69411C185.401 5.95543 196.178 21.1986 196.178 38.9231C196.178 56.6477 185.33 71.8908 170.442 75.1521C168.527 75.5775 166.613 75.7902 164.699 75.7902H164.486V75.7193ZM164.628 3.82849C148.18 3.82849 134.709 19.5679 134.709 38.9231C134.709 58.2074 148.038 73.9468 164.486 74.0177H164.699C166.471 74.0177 168.315 73.805 170.087 73.4506C184.196 70.331 194.476 55.8678 194.476 38.9231C194.476 22.0493 184.196 7.51519 170.087 4.39567C168.315 3.97028 166.471 3.82849 164.628 3.82849Z" fill="#1C1C1C"/>
<path d="M206.742 38.9231C206.742 58.7746 192.988 74.8685 175.973 74.8685C175.689 74.8685 175.405 74.8685 175.122 74.8685H174.98H164.771C166.685 74.8685 168.528 74.6558 170.301 74.2304C184.551 71.1109 195.399 56.4349 195.399 38.8522C195.399 21.2694 184.551 6.59348 170.301 3.47396C168.457 3.04857 166.543 2.83588 164.629 2.83588H175.051H175.193C175.476 2.83588 175.76 2.83588 175.973 2.83588C192.988 2.90677 206.742 19.0007 206.742 38.9231Z" fill="#1D1D1B"/>
<path d="M175.972 75.2939C175.688 75.2939 175.405 75.2939 175.192 75.2939H174.979H164.77V74.4431C166.613 74.4431 168.457 74.2304 170.229 73.8759C184.551 70.7564 194.973 56.0096 194.973 38.9231C194.973 21.8366 184.551 7.16069 170.229 3.97027C168.457 3.54488 166.613 3.40309 164.77 3.40309H164.699V2.55231H164.77H175.192C175.476 2.55231 175.759 2.55231 175.972 2.55231C193.2 2.55231 207.167 18.8589 207.167 38.9231C207.167 58.9873 193.129 75.2939 175.972 75.2939ZM174.979 74.4431H175.121C175.405 74.4431 175.688 74.4431 175.972 74.4431C192.704 74.4431 206.316 58.491 206.316 38.9231C206.316 19.3552 192.704 3.40309 175.972 3.40309C175.688 3.40309 175.476 3.40309 175.192 3.40309H175.05H171.505C185.685 7.08979 195.824 21.8366 195.824 38.9231C195.824 56.0096 185.685 70.7564 171.505 74.4431H174.979Z" fill="#1C1C1C"/>
<path d="M263.249 198.869C263.249 216.452 252.401 231.128 238.151 234.248C236.378 234.602 234.535 234.815 232.621 234.886H232.337C215.392 234.815 201.709 218.721 201.709 198.94C201.709 179.089 215.463 162.995 232.479 162.995C234.393 162.995 236.307 163.208 238.151 163.633C252.472 166.611 263.249 181.287 263.249 198.869Z" fill="#FFFF3F"/>
<path d="M232.407 235.666C215.037 235.595 200.857 219.076 200.857 198.799C200.857 178.522 215.037 162.002 232.478 162.002C234.463 162.002 236.448 162.215 238.363 162.641C253.322 165.902 264.099 181.145 264.099 198.87C264.099 216.594 253.251 231.837 238.363 235.099C236.448 235.524 234.534 235.737 232.62 235.737H232.407V235.666ZM232.478 163.775C215.959 163.775 202.559 179.514 202.559 198.87C202.559 218.154 215.888 233.893 232.336 233.964H232.549C234.321 233.964 236.165 233.751 237.937 233.397C252.046 230.277 262.326 215.814 262.326 198.87C262.326 181.996 252.046 167.462 237.937 164.342C236.165 163.988 234.321 163.775 232.478 163.775Z" fill="#1C1C1C"/>
<path d="M274.592 198.87C274.592 218.721 260.838 234.815 243.822 234.815C243.539 234.815 243.255 234.815 242.971 234.815H242.83H232.62C234.535 234.815 236.378 234.602 238.15 234.177C252.401 231.057 263.248 216.381 263.248 198.799C263.248 181.216 252.401 166.54 238.15 163.42C236.307 162.995 234.393 162.782 232.479 162.782H242.901H243.042C243.326 162.782 243.61 162.782 243.822 162.782C260.838 162.924 274.592 179.018 274.592 198.87Z" fill="#1D1D1B"/>
<path d="M243.823 235.24C243.539 235.24 243.255 235.24 242.972 235.24H232.621V234.39C234.464 234.39 236.307 234.177 238.08 233.822C252.401 230.703 262.823 215.956 262.823 198.87C262.823 181.783 252.401 167.107 238.08 163.917C236.307 163.491 234.464 163.35 232.621 163.35H232.55V162.499H232.621H243.043C243.326 162.499 243.61 162.499 243.823 162.499C261.051 162.499 275.018 178.805 275.018 198.87C275.018 218.934 261.051 235.24 243.823 235.24ZM242.901 234.39H243.043C243.326 234.39 243.61 234.39 243.894 234.39C260.626 234.39 274.238 218.437 274.238 198.87C274.238 179.302 260.626 163.35 243.894 163.35C243.61 163.35 243.397 163.35 243.114 163.35H242.972H239.427C253.607 167.036 263.745 181.783 263.745 198.87C263.745 215.956 253.607 230.703 239.427 234.39H242.901Z" fill="#1C1C1C"/>
<path d="M48.7812 162.073H45.449V158.741C45.449 157.323 44.3146 156.118 42.8258 156.118C41.4078 156.118 40.2025 157.252 40.2025 158.741V162.073H36.8703C35.4523 162.073 34.2471 163.208 34.2471 164.697C34.2471 166.115 35.3814 167.32 36.8703 167.32H40.2025V170.652C40.2025 172.07 41.3369 173.275 42.8258 173.275C44.2437 173.275 45.449 172.141 45.449 170.652V167.32H48.7812C50.1992 167.32 51.4044 166.185 51.4044 164.697C51.4044 163.208 50.1992 162.073 48.7812 162.073Z" fill="#E333B2"/>
<path d="M229.501 135.983H225.318V131.8C225.318 130.027 223.829 128.538 222.056 128.538C220.284 128.538 218.795 130.027 218.795 131.8V135.983H214.612C212.839 135.983 211.351 137.472 211.351 139.244C211.351 141.017 212.839 142.505 214.612 142.505H218.795V146.688C218.795 148.461 220.284 149.95 222.056 149.95C223.829 149.95 225.318 148.461 225.318 146.688V142.505H229.501C231.273 142.505 232.762 141.017 232.762 139.244C232.762 137.401 231.344 135.983 229.501 135.983Z" fill="#E333B2"/>
<path d="M118.757 49.2034H115V45.4458C115 43.8151 113.723 42.5389 112.093 42.5389C110.462 42.5389 109.186 43.8151 109.186 45.4458V49.2034H105.428C103.798 49.2034 102.521 50.4795 102.521 52.1102C102.521 53.7409 103.798 55.017 105.428 55.017H109.186V58.7746C109.186 60.4053 110.462 61.6815 112.093 61.6815C113.723 61.6815 115 60.4053 115 58.7746V55.017H118.757C120.388 55.017 121.664 53.7409 121.664 52.1102C121.664 50.4795 120.388 49.2034 118.757 49.2034Z" fill="#E333B2"/>
<path d="M407.881 178.309H405.045V175.473C405.045 174.268 404.052 173.275 402.847 173.275C401.642 173.275 400.649 174.268 400.649 175.473V178.309H397.813C396.608 178.309 395.615 179.302 395.615 180.507C395.615 181.712 396.608 182.705 397.813 182.705H400.649V185.541C400.649 186.746 401.642 187.738 402.847 187.738C404.052 187.738 405.045 186.746 405.045 185.541V182.705H407.881C409.086 182.705 410.078 181.712 410.078 180.507C410.078 179.302 409.086 178.309 407.881 178.309Z" fill="#E333B2"/>
<path d="M162.254 362.319L161.362 362.755L161.736 363.52L162.628 363.083L162.254 362.319Z" fill="#1C1C1C"/>
<path d="M188.661 336.604L188.277 336.787L188.643 337.555L189.027 337.372L188.661 336.604Z" fill="#1C1C1C"/>
<path d="M180.503 400.655L180.378 400.722L180.781 401.471L180.906 401.404L180.503 400.655Z" fill="#1C1C1C"/>
<path d="M341.449 485.228L165.692 420.497C160.871 418.725 156.971 414.967 155.057 410.146L86.0022 237.438C80.1176 222.762 94.4391 208.086 109.257 213.545L261.334 269.555C266.155 271.328 270.054 275.085 271.968 279.906L350.382 476.011C352.65 481.683 347.191 487.354 341.449 485.228Z" fill="#00FFBD"/>
<path d="M343.93 487C342.938 487 341.945 486.858 341.024 486.504L165.267 421.774C160.091 419.859 155.908 415.818 153.852 410.713L84.7974 238.005C81.8906 230.703 83.4503 222.691 88.9095 217.09C94.3686 211.489 102.309 209.646 109.683 212.34L261.759 268.35C266.935 270.264 271.118 274.305 273.174 279.41L351.587 475.514C352.793 478.634 352.155 482.037 349.815 484.448C348.255 486.078 346.128 487 343.93 487ZM102.806 213.616C98.3389 213.616 94.0142 215.389 90.7528 218.792C86.0027 223.684 84.6556 230.632 87.137 236.942L156.192 409.65C157.964 414.117 161.58 417.591 166.047 419.292L341.803 484.022C343.93 484.802 346.27 484.306 347.901 482.604C349.531 480.974 349.957 478.634 349.106 476.436L270.763 280.332C268.991 275.865 265.375 272.391 260.909 270.689L108.832 214.68C106.847 213.971 104.791 213.616 102.806 213.616Z" fill="#1C1C1C"/>
<path d="M335.21 470.835L263.319 291.037C261.405 286.216 257.505 282.459 252.684 280.686L108.974 227.725L243.751 289.69C248.572 291.888 252.401 295.717 254.67 300.467L335.21 470.835Z" fill="#1D1D1B"/>
<path d="M185.119 338.255C184.269 338.964 183.347 339.603 182.425 340.17L182.354 340.241C180.795 341.091 179.022 341.659 177.179 341.871C176.045 342.013 174.91 342.084 173.705 341.942H173.634C163.496 341.021 154.846 331.166 154.35 319.751C153.995 311.81 157.682 305.288 163.354 302.31L164.205 301.885C165.197 301.459 166.261 301.105 167.395 300.821C168.813 300.538 170.373 300.396 171.932 300.538C173.138 300.609 174.272 300.892 175.406 301.247C184.056 303.728 190.862 312.661 191.288 322.8C191.5 329.251 189.09 334.852 185.119 338.255Z" fill="#E333B2"/>
<path d="M174.98 343.289C174.484 343.289 174.058 343.289 173.491 343.218H173.42C162.644 342.297 153.427 331.733 152.931 319.822C152.576 311.669 156.263 304.508 162.573 301.176L163.495 300.75C164.629 300.254 165.834 299.829 166.969 299.616C168.528 299.261 170.23 299.191 171.86 299.332C173.208 299.474 174.484 299.687 175.618 300.041C184.906 302.735 191.996 312.307 192.421 322.8C192.705 329.464 190.294 335.49 185.827 339.319C184.906 340.099 183.913 340.808 182.85 341.375L182.779 341.446C181.006 342.368 179.092 343.006 177.178 343.218C176.54 343.289 175.831 343.289 174.98 343.289ZM170.443 301.814C169.45 301.814 168.457 301.885 167.536 302.097C166.543 302.31 165.551 302.594 164.629 303.019L163.778 303.444C158.39 306.28 155.199 312.519 155.554 319.68C156.05 330.386 164.133 339.815 173.633 340.595H173.704C174.838 340.666 175.902 340.666 176.894 340.524C178.596 340.312 180.156 339.815 181.644 339.035L181.715 338.964C182.566 338.468 183.417 337.901 184.197 337.263C188.025 333.931 190.152 328.684 189.869 322.8C189.443 313.37 183.133 304.862 174.909 302.452C173.917 302.097 172.782 301.956 171.648 301.814C171.293 301.814 170.868 301.814 170.443 301.814Z" fill="#1C1C1C"/>
<path d="M174.129 335.987C173.845 335.987 173.562 335.987 173.278 335.916H173.207C166.117 335.278 159.808 327.763 159.453 319.467C159.24 314.221 161.367 309.684 165.125 307.698L165.834 307.344C166.401 307.06 167.039 306.918 167.677 306.777C168.315 306.635 168.953 306.564 169.662 306.564C169.946 306.564 170.23 306.564 170.513 306.635C171.293 306.706 172.002 306.848 172.711 307.06L172.853 307.131C179.092 308.975 184.055 315.852 184.409 323.154C184.622 327.55 183.133 331.378 180.368 333.789C179.801 334.285 179.305 334.64 178.737 334.923L178.596 334.994C177.603 335.49 176.61 335.845 175.476 335.987H175.334C174.98 335.916 174.554 335.987 174.129 335.987Z" fill="#1C1C1C"/>
<path d="M174.129 336.412C173.846 336.412 173.562 336.412 173.208 336.341C165.834 335.703 159.382 327.975 158.957 319.538C158.744 314.079 161.013 309.4 164.842 307.344L165.551 306.989C166.189 306.706 166.827 306.493 167.465 306.351C168.457 306.139 169.379 306.068 170.443 306.209C171.222 306.28 172.002 306.422 172.711 306.635H172.853C179.305 308.478 184.339 315.568 184.693 323.012C184.906 327.55 183.346 331.52 180.51 333.931C179.943 334.427 179.376 334.781 178.809 335.136L178.738 335.207C177.745 335.774 176.611 336.058 175.476 336.27H175.335C174.98 336.341 174.555 336.412 174.129 336.412ZM169.592 306.989C168.954 306.989 168.316 307.06 167.678 307.202C167.11 307.344 166.472 307.486 165.976 307.769L165.338 308.124C161.793 310.038 159.666 314.434 159.879 319.538C160.233 327.621 166.331 334.923 173.279 335.561C174.058 335.632 174.697 335.632 175.264 335.49H175.405C176.469 335.349 177.462 335.065 178.383 334.569L178.454 334.498C178.95 334.214 179.518 333.86 180.014 333.434C182.637 331.166 184.055 327.408 183.913 323.154C183.63 315.993 178.738 309.329 172.711 307.557L172.57 307.486C171.931 307.273 171.222 307.131 170.443 307.06C170.159 307.06 169.875 306.989 169.592 306.989Z" fill="#1C1C1C"/>
<path d="M172.215 329.393C172.073 329.393 171.931 329.393 171.718 329.393C167.819 329.039 164.345 324.927 164.132 320.318C163.991 317.411 165.196 314.93 167.252 313.796L167.606 313.583C167.961 313.441 168.244 313.299 168.599 313.228C168.953 313.158 169.308 313.087 169.662 313.087C169.804 313.087 169.946 313.087 170.159 313.087C170.584 313.158 171.009 313.228 171.364 313.299H171.435C174.909 314.292 177.603 318.12 177.816 322.091C177.958 324.501 177.107 326.628 175.618 327.904C175.334 328.188 175.051 328.401 174.696 328.542H174.625C174.058 328.826 173.491 329.039 172.924 329.11H172.853C172.711 329.322 172.498 329.393 172.215 329.393Z" fill="#00FFBD"/>
<path d="M172.214 330.669C172.001 330.669 171.859 330.669 171.647 330.669C167.109 330.244 163.068 325.565 162.855 320.389C162.714 316.986 164.132 314.008 166.684 312.661L167.109 312.449C167.535 312.236 167.96 312.094 168.456 312.023C169.094 311.881 169.733 311.881 170.371 311.881C170.867 311.952 171.363 312.023 171.859 312.165C175.83 313.299 179.02 317.624 179.162 322.162C179.304 324.998 178.311 327.479 176.468 329.039C176.113 329.322 175.759 329.606 175.334 329.819C174.625 330.173 173.845 330.457 173.136 330.528C172.852 330.669 172.568 330.669 172.214 330.669ZM169.733 314.505C169.449 314.505 169.165 314.505 168.882 314.576C168.598 314.646 168.385 314.717 168.173 314.788L167.818 314.93C166.259 315.781 165.337 317.837 165.408 320.176C165.55 324.076 168.598 327.692 171.789 327.975C172.072 327.975 172.356 327.975 172.639 327.975H172.71C173.207 327.904 173.632 327.763 173.986 327.55C174.27 327.408 174.483 327.266 174.695 327.054C175.901 325.99 176.539 324.289 176.468 322.233C176.326 318.829 173.916 315.426 171.08 314.576H171.009C170.725 314.505 170.371 314.434 170.087 314.363C170.016 314.505 169.874 314.505 169.733 314.505Z" fill="#1C1C1C"/>
<path d="M188.522 337.192L182.425 340.17C183.417 339.673 184.268 339.035 185.119 338.255C189.089 334.852 191.5 329.251 191.216 322.8C190.791 312.661 183.913 303.728 175.335 301.247C174.2 300.892 173.066 300.679 171.861 300.538C170.301 300.396 168.741 300.538 167.323 300.821C166.189 301.034 165.125 301.388 164.133 301.885L170.23 298.836L170.797 298.552C173.137 297.418 175.831 296.922 178.738 297.134C179.943 297.205 181.077 297.489 182.212 297.843C190.861 300.325 197.668 309.258 198.093 319.397C198.518 327.621 194.548 334.356 188.522 337.192Z" fill="#1C1C1C"/>
<path d="M182.991 341.304L181.786 338.964C182.637 338.539 183.487 337.901 184.267 337.263C188.167 333.931 190.223 328.684 189.939 322.8C189.514 313.37 183.204 304.862 174.98 302.452C173.987 302.097 172.853 301.956 171.718 301.814C170.3 301.672 168.882 301.814 167.535 302.026C166.543 302.239 165.55 302.523 164.629 302.948L163.494 300.608L170.159 297.276C172.853 296 175.76 295.504 178.737 295.787C180.084 295.929 181.361 296.142 182.495 296.496C191.783 299.191 198.872 308.762 199.298 319.255C199.652 327.692 195.611 335.136 188.947 338.255L182.991 341.304ZM172.356 299.332C173.562 299.474 174.696 299.687 175.689 300.041C184.976 302.735 192.066 312.307 192.492 322.8C192.704 327.408 191.641 331.733 189.443 335.207C194.264 332.158 197.1 326.203 196.816 319.538C196.391 310.109 190.081 301.601 181.857 299.191C180.864 298.836 179.73 298.694 178.595 298.552C176.398 298.269 174.342 298.552 172.356 299.332Z" fill="#1C1C1C"/>
<path d="M346.907 217.445L327.623 210.568L341.023 173.063C342.937 167.745 348.751 164.98 354.068 166.894C356.691 167.816 358.747 169.801 359.882 172.141C361.016 174.481 361.229 177.316 360.236 179.94L346.907 217.445Z" fill="#1C1C1C"/>
<path d="M347.688 219.146L325.993 211.348L339.818 172.637C341.945 166.682 348.539 163.562 354.565 165.689C357.472 166.753 359.812 168.809 361.088 171.645C362.435 174.41 362.577 177.529 361.513 180.436L347.688 219.146ZM329.325 209.788L346.128 215.814L359.103 179.514C359.883 177.246 359.812 174.835 358.748 172.708C357.756 170.581 355.912 168.95 353.714 168.1C349.106 166.469 343.93 168.88 342.3 173.488L329.325 209.788Z" fill="#1C1C1C"/>
<path d="M304.227 231.27L303.376 230.987C295.578 228.222 291.465 219.572 294.301 211.773L308.836 171.078C312.38 161.081 323.37 155.905 333.366 159.45L354.139 166.895C348.822 164.98 342.938 167.745 341.094 173.063L323.511 222.195C320.676 229.994 312.097 234.106 304.227 231.27Z" fill="#00FFBD"/>
<path d="M309.332 233.468C307.489 233.468 305.645 233.184 303.873 232.546L303.022 232.263C294.514 229.214 290.119 219.855 293.167 211.348L307.701 170.652C311.53 160.017 323.228 154.487 333.934 158.245L354.707 165.689L353.856 168.171C349.248 166.54 344.143 168.951 342.442 173.559L324.717 222.621C322.307 229.285 315.997 233.468 309.332 233.468ZM326.915 159.663C319.541 159.663 312.664 164.2 310.041 171.503L295.507 212.198C292.955 219.359 296.712 227.229 303.802 229.781L304.653 230.065C311.814 232.617 319.683 228.86 322.236 221.77L339.818 172.637C341.024 169.234 343.647 166.753 346.837 165.689L332.941 160.726C330.956 159.946 328.9 159.663 326.915 159.663Z" fill="#1C1C1C"/>
<path d="M308.268 232.83L307.417 232.546C306.85 232.334 306.354 232.121 305.857 231.908C313.231 233.681 320.888 229.639 323.44 222.337L341.023 173.204C342.937 167.887 348.751 165.122 354.068 167.036C354.777 167.249 355.415 167.603 355.982 167.958C351.303 167.32 346.695 170.014 344.993 174.622L327.41 223.755C324.716 231.554 316.067 235.666 308.268 232.83Z" fill="#1D1D1B"/>
<path d="M307.7 226.449C306.495 226.449 305.219 226.236 304.014 225.811C301.461 224.889 299.405 223.046 298.2 220.635C296.995 218.225 296.853 215.602 297.704 213.12C297.916 212.482 298.2 211.986 298.554 211.419C300.965 207.448 306.07 205.818 310.678 207.519C315.286 209.221 318.122 213.758 317.413 218.367C317.342 218.934 317.201 219.572 316.988 220.139C315.499 224.109 311.741 226.449 307.7 226.449ZM306.991 208.653C304.155 208.653 301.461 210.001 300.043 212.411C299.76 212.836 299.547 213.262 299.405 213.758C298.696 215.743 298.838 217.941 299.76 219.855C300.752 221.841 302.454 223.329 304.652 224.18C309.047 225.811 313.868 223.755 315.357 219.643C315.57 219.076 315.641 218.65 315.712 218.154C316.279 214.325 313.939 210.568 310.111 209.15C309.047 208.795 307.984 208.653 306.991 208.653Z" fill="#1C1C1C"/>
<path d="M311.529 205.25C316.35 207.023 318.973 212.128 317.343 216.665L316.137 219.855C316.35 219.288 316.492 218.792 316.563 218.225C317.201 214.113 314.719 209.93 310.395 208.299C306.07 206.739 301.462 208.299 299.264 211.844C298.98 212.34 298.696 212.837 298.555 213.333L299.76 210.001C301.532 205.676 306.708 203.478 311.529 205.25Z" fill="#1D1D1B"/>
<path d="M316.563 220.068L315.783 219.784C315.996 219.288 316.137 218.721 316.137 218.225C316.776 214.254 314.294 210.284 310.253 208.795C306.212 207.306 301.745 208.724 299.689 212.198C299.405 212.624 299.193 213.12 298.98 213.616L298.2 213.333L299.405 210.001C301.249 205.25 306.708 203.053 311.742 204.896C316.776 206.739 319.47 212.127 317.768 216.878L316.563 220.068ZM306.992 207.306C308.197 207.306 309.402 207.519 310.536 207.944C314.223 209.292 316.705 212.553 317.059 216.098C318.335 211.915 315.854 207.236 311.387 205.605C306.992 203.974 302.029 205.888 300.256 209.93C302.029 208.299 304.439 207.306 306.992 207.306Z" fill="#1D1D1B"/>
<path d="M131.874 159.805C133.292 155.338 131.519 152.715 127.124 149.879C124.004 147.823 123.65 146.476 124.217 144.703C124.784 142.931 126.273 142.293 128.471 143.356C130.456 144.278 131.307 145.554 131.236 147.752C131.236 148.177 131.449 148.603 131.803 148.745L133.575 149.595C134.001 149.808 134.497 149.595 134.639 149.099L134.71 148.957C135.206 145.98 133.93 142.86 131.449 141.371L132.441 138.323C132.583 137.826 132.37 137.259 131.874 136.905L130.243 136.125C129.818 135.912 129.322 136.125 129.038 136.692L128.116 139.599C124.642 138.535 121.735 140.095 120.743 143.285C119.396 147.468 121.026 150.163 125.422 152.998C128.258 155.125 129.038 156.331 128.4 158.387C127.762 160.443 125.777 161.081 123.65 160.088C120.814 158.741 120.247 156.827 120.53 154.771C120.601 154.204 120.317 153.778 120.034 153.637L118.191 152.715C117.765 152.502 117.269 152.715 117.127 153.211L117.056 153.353C116.489 156.756 117.482 159.876 120.885 162.215L119.892 165.264C119.75 165.76 119.963 166.327 120.459 166.682L122.09 167.462C122.515 167.674 123.012 167.462 123.295 166.895L124.288 163.846C127.691 164.838 130.81 163.208 131.874 159.805Z" fill="#0A2E67"/>
<path d="M114.715 167.036C107.271 159.379 106.491 146.263 112.801 137.968C116.204 133.431 121.096 131.091 126.201 131.304C126.697 131.233 127.052 130.949 127.264 130.311L127.831 128.539C127.973 128.042 127.902 127.546 127.477 127.191C127.335 127.121 127.122 127.05 126.981 127.121C115.282 125.986 105.428 136.054 104.86 149.737C104.506 157.82 107.484 165.547 112.872 170.723C113.226 171.219 113.723 171.148 114.006 170.652C114.148 170.581 114.219 170.439 114.29 170.227L114.857 168.454C115.141 168.1 114.999 167.462 114.715 167.036Z" fill="#0A2E67"/>
<path d="M139.176 132.863C138.821 132.367 138.325 132.438 138.041 132.934C137.9 133.005 137.829 133.147 137.758 133.36L137.191 135.132C137.049 135.628 137.191 136.337 137.403 136.692C144.848 144.349 145.627 157.465 139.317 165.76C135.914 170.298 131.022 172.637 125.918 172.425C125.421 172.495 125.067 172.779 124.854 173.417L124.287 175.19C124.145 175.686 124.216 176.182 124.642 176.537C124.783 176.608 124.996 176.678 125.138 176.608C136.836 177.742 146.691 167.674 147.258 153.991C147.542 145.838 144.493 138.039 139.176 132.863Z" fill="#0A2E67"/>
<path d="M178.667 43.7442C177.816 41.6881 176.327 39.9156 174.555 38.7104C176.256 37.2924 177.249 35.0946 177.178 32.4713C177.107 27.9338 173.775 23.8217 169.592 22.6165L169.521 18.0081L166.047 17.5827L166.118 22.1202L160.871 21.4821L160.801 16.9446L157.327 16.5192L157.397 21.0567L149.599 20.0641L149.67 23.6799L153.994 24.2471L154.207 35.0237L149.882 34.4565L149.953 38.0723L154.278 38.6395L154.562 51.2594L150.237 50.6922L150.308 54.308L158.106 55.3006L158.177 59.8381L161.651 60.2634L161.58 55.7259L166.827 56.364L166.898 60.9015L170.372 61.3269L170.301 56.7894C173.491 57.1439 176.398 55.8677 178.1 53.3154C179.943 50.6922 180.085 47.2182 178.667 43.7442ZM157.468 24.6016L168.387 25.9487C171.293 26.3032 173.633 28.9973 173.704 31.975C173.775 34.9528 171.506 37.0797 168.599 36.7252L157.752 35.4491L157.468 24.6016ZM175.193 50.9758C174.129 52.6064 172.215 53.4572 170.159 53.1736L158.036 51.6848L157.752 39.0649L169.876 40.5537C172.286 40.8373 174.555 42.5389 175.476 44.7367C176.469 47.0055 176.327 49.2742 175.193 50.9758Z" fill="#0A2E67"/>
<path d="M244.389 206.597C244.247 204.4 243.326 202.273 241.979 200.571C244.035 199.72 245.665 197.948 246.374 195.466C247.65 191.142 245.807 186.179 242.12 183.768L243.397 179.373L240.206 177.884L238.93 182.208L234.18 180.011L235.456 175.686L232.266 174.197L230.989 178.522L223.829 175.19L222.836 178.664L226.806 180.507L223.758 190.858L219.787 189.015L218.795 192.489L222.765 194.332L219.149 206.456L215.179 204.612L214.187 208.086L221.347 211.419L220.071 215.743L223.262 217.232L224.538 212.907L229.288 215.105L228.012 219.43L231.202 220.919L232.478 216.594C235.385 217.941 238.576 217.587 240.986 215.672C243.468 213.616 244.673 210.355 244.389 206.597ZM230.068 181.925L239.993 186.533C242.617 187.739 244.106 191.071 243.255 193.907C242.404 196.743 239.568 198.09 236.945 196.884L227.019 192.276L230.068 181.925ZM238.859 212.411C237.299 213.616 235.314 213.829 233.4 212.978L222.34 207.803L225.956 195.679L237.087 200.855C239.285 201.918 240.915 204.187 241.128 206.527C241.27 209.008 240.49 211.135 238.859 212.411Z" fill="#0A2E67"/>
<path d="M330.815 428.225C330.602 428.225 330.389 428.154 330.177 428.084C329.539 427.729 329.326 426.949 329.61 426.311C330.035 425.531 330.319 424.68 330.531 423.83L364.988 276.645C366.193 271.611 363.357 266.506 358.536 264.734L349.319 261.402L318.408 393.202C318.266 393.911 317.557 394.336 316.848 394.194C316.139 394.052 315.713 393.343 315.855 392.634L347.405 257.999L359.387 262.323C365.484 264.521 368.958 270.973 367.469 277.283L333.013 424.468C332.729 425.531 332.375 426.595 331.878 427.587C331.737 428.013 331.24 428.225 330.815 428.225Z" fill="#1C1C1C"/>
<path d="M361.3 431.841L350.878 476.153C350.807 476.507 350.736 476.862 350.595 477.145C350.595 476.932 350.524 476.649 350.453 476.436C350.382 476.082 350.24 475.798 350.169 475.514L330.53 426.453L327.553 419.079C329.042 420.001 330.53 420.852 332.019 421.703C340.314 426.24 349.389 429.572 358.961 431.416C359.741 431.558 360.52 431.699 361.3 431.841Z" fill="#1C1C1C"/>
<path d="M261.618 455.167L165.692 419.859C160.8 418.087 156.972 414.329 155.057 409.508L102.238 277.354L159.24 390.011C164.062 399.582 171.719 407.381 181.148 412.415L261.618 455.167Z" fill="#1C1C1C"/>
<path d="M302.88 79.9732C302.88 97.556 292.033 112.232 277.783 115.351C276.01 115.706 274.167 115.919 272.252 115.99H271.969C255.024 115.919 241.341 99.8247 241.341 80.0441C241.341 60.1926 255.095 44.0987 272.111 44.0987C274.025 44.0987 275.939 44.3114 277.783 44.7368C292.033 47.7145 302.88 62.3195 302.88 79.9732Z" fill="#FFFF3F"/>
<path d="M271.969 116.769C254.599 116.699 240.419 100.179 240.419 79.9023C240.419 59.6254 254.599 43.1061 272.04 43.1061C274.025 43.1061 276.01 43.3188 277.924 43.7442C292.884 47.0055 303.66 62.2487 303.66 79.9732C303.66 97.6978 292.813 112.941 277.924 116.202C276.01 116.628 274.096 116.84 272.181 116.84H271.969V116.769ZM272.11 44.8786C255.591 44.8786 242.191 60.618 242.191 79.9732C242.191 99.2575 255.52 114.997 271.969 115.068H272.181C273.954 115.068 275.797 114.855 277.57 114.501C291.678 111.381 301.959 96.9179 301.959 79.9732C301.959 63.0994 291.678 48.5653 277.57 45.4458C275.797 45.0204 273.954 44.8786 272.11 44.8786Z" fill="#1C1C1C"/>
<path d="M314.224 79.9732C314.224 99.8247 300.47 115.919 283.454 115.919C283.17 115.919 282.887 115.919 282.603 115.919H282.461H272.252C274.166 115.919 276.01 115.706 277.782 115.281C292.033 112.161 302.88 97.485 302.88 79.9023C302.88 62.3195 292.033 47.6436 277.782 44.5241C275.939 44.0987 274.025 43.886 272.11 43.886H282.532H282.674C282.958 43.886 283.241 43.886 283.454 43.886C300.399 43.9569 314.224 60.1217 314.224 79.9732Z" fill="#1D1D1B"/>
<path d="M283.455 116.344C283.171 116.344 282.888 116.344 282.675 116.344H282.533H272.324V115.493C274.167 115.493 276.011 115.281 277.783 114.926C292.104 111.807 302.526 97.0597 302.526 79.9732C302.526 62.8867 292.104 48.2108 277.783 45.0204C276.011 44.595 274.167 44.4532 272.324 44.4532H272.253V43.6024H272.324H282.746C283.029 43.6024 283.313 43.6024 283.526 43.6024C300.754 43.6024 314.721 59.909 314.721 79.9732C314.65 100.037 300.612 116.344 283.455 116.344ZM282.462 115.493H282.604C282.888 115.493 283.171 115.493 283.455 115.493C300.187 115.493 313.799 99.5411 313.799 79.9732C313.799 60.4053 300.187 44.4532 283.455 44.4532C283.171 44.4532 282.959 44.4532 282.675 44.4532H282.533H278.988C293.168 48.1399 303.306 62.8867 303.306 79.9732C303.306 97.0597 293.168 111.807 278.988 115.493H282.462Z" fill="#1C1C1C"/>
<path d="M280.335 83.2345L285.368 79.7605L279.555 55.5842L261.547 72.7415L263.886 78.4134L258.853 81.8874L264.666 106.064L282.674 88.9063L280.335 83.2345ZM266.155 73.7341L277.286 63.1703L280.902 78.0589L270.834 85.0069L267.148 76.1447L266.155 73.7341ZM266.864 98.4776L263.248 83.589L265.375 82.1001L269.062 90.9624L276.932 85.5032L277.924 87.9138L266.864 98.4776Z" fill="#0A2E67"/>
</svg>
